<?xml version="1.0" encoding="utf-8"?>
<!-- Generator: Adobe Illustrator 27.5.0, SVG Export Plug-In . SVG Version: 6.00 Build 0)  -->
<svg version="1.1" xmlns="http://www.w3.org/2000/svg" xmlns:xlink="http://www.w3.org/1999/xlink" x="0px" y="0px"
	 viewBox="0 0 500 500" style="enable-background:new 0 0 500 500;" xml:space="preserve">
<g id="Background_Simple">
	<g>
		<path style="fill:#92E3A9;" d="M463,210.154c0,0-64-156.116-181-186.262S115.929,85.926,98,149.861
			C80.071,213.796,14,298.44,20,356.58c5.702,55.255,54.131,81.394,99.361,92.608c57.488,14.253,122.815,15.335,180.52,3.454
			c13.729-2.827,27.196-6.624,40.565-10.982c27.115-8.842,53.724-15.691,81.186-23.016c52.241-13.936,72.942-70.048,67.046-123.742
			C485.359,264.688,474.285,237.653,463,210.154z"/>
		<path style="opacity:0.7;fill:#FFFFFF;" d="M463,210.154c0,0-64-156.116-181-186.262S115.929,85.926,98,149.861
			C80.071,213.796,14,298.44,20,356.58c5.702,55.255,54.131,81.394,99.361,92.608c57.488,14.253,122.815,15.335,180.52,3.454
			c13.729-2.827,27.196-6.624,40.565-10.982c27.115-8.842,53.724-15.691,81.186-23.016c52.241-13.936,72.942-70.048,67.046-123.742
			C485.359,264.688,474.285,237.653,463,210.154z"/>
	</g>
</g>
<g id="Plants">
	<g>
		<g>
			
				<line style="fill:none;stroke:#263238;stroke-width:2;stroke-miterlimit:10;" x1="48.651" y1="220.723" x2="67.096" y2="397.457"/>
			<g>
				<g>
					
						<line style="fill:none;stroke:#263238;stroke-width:2;stroke-miterlimit:10;" x1="64.123" y1="363.635" x2="55.761" y2="354.803"/>
					<path style="fill:#92E3A9;stroke:#263238;stroke-miterlimit:10;" d="M58.302,357.449c0,0,0.239-3.907-3.328-7.093
						c-2.146-1.917-13.442-6.669-14.514-2.69C39.294,351.993,50.856,360.491,58.302,357.449z"/>
					
						<line style="fill:none;stroke:#263238;stroke-width:0.5;stroke-miterlimit:10;" x1="58.302" y1="357.449" x2="47.548" y2="350.748"/>
				</g>
				<g>
					
						<line style="fill:none;stroke:#263238;stroke-width:2;stroke-miterlimit:10;" x1="66.22" y1="383.734" x2="57.859" y2="374.903"/>
					<path style="fill:#92E3A9;stroke:#263238;stroke-miterlimit:10;" d="M60.399,377.549c0,0,0.239-3.907-3.328-7.093
						c-2.146-1.917-13.442-6.669-14.514-2.69C41.392,372.093,52.953,380.59,60.399,377.549z"/>
					
						<line style="fill:none;stroke:#263238;stroke-width:0.5;stroke-miterlimit:10;" x1="60.399" y1="377.549" x2="49.646" y2="370.848"/>
				</g>
				<g>
					
						<line style="fill:none;stroke:#263238;stroke-width:2;stroke-miterlimit:10;" x1="59.004" y1="314.587" x2="50.643" y2="305.756"/>
					<path style="fill:#92E3A9;stroke:#263238;stroke-miterlimit:10;" d="M53.183,308.402c0,0,0.239-3.907-3.328-7.093
						c-2.146-1.917-13.442-6.669-14.514-2.69C34.176,302.946,45.737,311.443,53.183,308.402z"/>
					
						<line style="fill:none;stroke:#263238;stroke-width:0.5;stroke-miterlimit:10;" x1="53.183" y1="308.402" x2="42.43" y2="301.701"/>
				</g>
				<g>
					
						<line style="fill:none;stroke:#263238;stroke-width:2;stroke-miterlimit:10;" x1="61.102" y1="334.687" x2="52.74" y2="325.856"/>
					<path style="fill:#92E3A9;stroke:#263238;stroke-miterlimit:10;" d="M55.281,328.502c0,0,0.239-3.907-3.328-7.093
						c-2.146-1.917-13.442-6.669-14.514-2.69C36.273,323.046,47.835,331.543,55.281,328.502z"/>
					
						<line style="fill:none;stroke:#263238;stroke-width:0.5;stroke-miterlimit:10;" x1="55.281" y1="328.502" x2="44.527" y2="321.801"/>
				</g>
				<g>
					
						<line style="fill:none;stroke:#263238;stroke-width:2;stroke-miterlimit:10;" x1="55.597" y1="281.937" x2="47.235" y2="273.105"/>
					<path style="fill:#92E3A9;stroke:#263238;stroke-miterlimit:10;" d="M49.776,275.751c0,0,0.239-3.907-3.328-7.093
						c-2.146-1.917-13.442-6.669-14.514-2.691C30.768,270.295,42.33,278.793,49.776,275.751z"/>
					
						<line style="fill:none;stroke:#263238;stroke-width:0.5;stroke-miterlimit:10;" x1="49.776" y1="275.751" x2="39.022" y2="269.05"/>
				</g>
				<g>
					
						<line style="fill:none;stroke:#263238;stroke-width:2;stroke-miterlimit:10;" x1="52.174" y1="249.144" x2="43.813" y2="240.312"/>
					<path style="fill:#92E3A9;stroke:#263238;stroke-miterlimit:10;" d="M46.353,242.958c0,0,0.239-3.907-3.328-7.093
						c-2.146-1.917-13.442-6.669-14.514-2.691C27.346,237.502,38.907,245.999,46.353,242.958z"/>
					
						<line style="fill:none;stroke:#263238;stroke-width:0.5;stroke-miterlimit:10;" x1="46.353" y1="242.958" x2="35.6" y2="236.257"/>
				</g>
				<g>
					
						<line style="fill:none;stroke:#263238;stroke-width:2;stroke-miterlimit:10;" x1="62.717" y1="351.742" x2="69.075" y2="341.374"/>
					<path style="fill:#92E3A9;stroke:#263238;stroke-miterlimit:10;" d="M67.136,344.488c0,0-1.041-3.773,1.792-7.627
						c1.704-2.319,11.775-9.3,13.645-5.629C84.607,335.225,75.049,345.927,67.136,344.488z"/>
					
						<line style="fill:none;stroke:#263238;stroke-width:0.5;stroke-miterlimit:10;" x1="67.136" y1="344.488" x2="76.819" y2="335.233"/>
				</g>
				<g>
					
						<line style="fill:none;stroke:#263238;stroke-width:2;stroke-miterlimit:10;" x1="57.197" y1="298.849" x2="63.555" y2="288.482"/>
					<path style="fill:#92E3A9;stroke:#263238;stroke-miterlimit:10;" d="M61.616,291.595c0,0-1.041-3.773,1.792-7.627
						c1.704-2.319,11.775-9.3,13.645-5.629C79.087,282.332,69.529,293.034,61.616,291.595z"/>
					
						<line style="fill:none;stroke:#263238;stroke-width:0.5;stroke-miterlimit:10;" x1="61.616" y1="291.595" x2="71.299" y2="282.34"/>
				</g>
				<g>
					
						<line style="fill:none;stroke:#263238;stroke-width:2;stroke-miterlimit:10;" x1="54.772" y1="275.605" x2="61.13" y2="265.237"/>
					<path style="fill:#92E3A9;stroke:#263238;stroke-miterlimit:10;" d="M59.19,268.351c0,0-1.041-3.773,1.792-7.627
						c1.704-2.319,11.775-9.3,13.645-5.629C76.661,259.088,67.104,269.789,59.19,268.351z"/>
					
						<line style="fill:none;stroke:#263238;stroke-width:0.5;stroke-miterlimit:10;" x1="59.19" y1="268.351" x2="68.873" y2="259.096"/>
				</g>
				<g>
					
						<line style="fill:none;stroke:#263238;stroke-width:2;stroke-miterlimit:10;" x1="51.215" y1="241.528" x2="57.573" y2="231.161"/>
					<path style="fill:#92E3A9;stroke:#263238;stroke-miterlimit:10;" d="M55.634,234.274c0,0-1.041-3.773,1.792-7.627
						c1.704-2.319,11.775-9.3,13.645-5.629C73.105,225.011,63.547,235.713,55.634,234.274z"/>
					
						<line style="fill:none;stroke:#263238;stroke-width:0.5;stroke-miterlimit:10;" x1="55.634" y1="234.274" x2="65.317" y2="225.02"/>
					<path style="fill:#92E3A9;stroke:#263238;stroke-miterlimit:10;" d="M48.496,219.741c0,0-1.041-3.773,1.792-7.627
						c1.704-2.319,11.775-9.3,13.645-5.629C65.967,210.478,56.409,221.18,48.496,219.741z"/>
					
						<line style="fill:none;stroke:#263238;stroke-width:0.5;stroke-miterlimit:10;" x1="48.496" y1="219.741" x2="58.179" y2="210.486"/>
					<path style="fill:#92E3A9;stroke:#263238;stroke-miterlimit:10;" d="M49.057,220.141c0,0-3.861,0.639-7.397-2.582
						c-2.127-1.938-8.014-12.686-4.167-14.16C41.677,201.794,51.318,212.422,49.057,220.141z"/>
					
						<line style="fill:none;stroke:#263238;stroke-width:0.5;stroke-miterlimit:10;" x1="49.057" y1="220.141" x2="40.869" y2="209.54"/>
				</g>
			</g>
		</g>
		<g>
			
				<line style="fill:none;stroke:#263238;stroke-width:2;stroke-miterlimit:10;" x1="97.299" y1="245.062" x2="78.958" y2="421.807"/>
			<g>
				<g>
					
						<line style="fill:none;stroke:#263238;stroke-width:2;stroke-miterlimit:10;" x1="83.013" y1="388.097" x2="76.649" y2="377.733"/>
					<path style="fill:#92E3A9;stroke:#263238;stroke-miterlimit:10;" d="M78.59,380.846c0,0,1.038-3.774-1.796-7.626
						c-1.706-2.318-11.781-9.293-13.649-5.621C61.114,371.593,70.678,382.289,78.59,380.846z"/>
					
						<line style="fill:none;stroke:#263238;stroke-width:0.5;stroke-miterlimit:10;" x1="78.59" y1="380.846" x2="69.447" y2="372.074"/>
				</g>
				<g>
					
						<line style="fill:none;stroke:#263238;stroke-width:2;stroke-miterlimit:10;" x1="88.103" y1="339.047" x2="81.739" y2="328.683"/>
					<path style="fill:#92E3A9;stroke:#263238;stroke-miterlimit:10;" d="M83.68,331.796c0,0,1.039-3.774-1.796-7.626
						c-1.706-2.318-11.781-9.293-13.649-5.621C66.204,322.543,75.768,333.239,83.68,331.796z"/>
					
						<line style="fill:none;stroke:#263238;stroke-width:0.5;stroke-miterlimit:10;" x1="83.68" y1="331.796" x2="74.537" y2="323.024"/>
				</g>
				<g>
					
						<line style="fill:none;stroke:#263238;stroke-width:2;stroke-miterlimit:10;" x1="86.017" y1="359.148" x2="79.653" y2="348.784"/>
					<path style="fill:#92E3A9;stroke:#263238;stroke-miterlimit:10;" d="M81.594,351.897c0,0,1.039-3.774-1.796-7.626
						c-1.706-2.318-11.781-9.293-13.649-5.621C64.118,342.644,73.682,353.34,81.594,351.897z"/>
					
						<line style="fill:none;stroke:#263238;stroke-width:0.5;stroke-miterlimit:10;" x1="81.594" y1="351.897" x2="72.451" y2="343.125"/>
				</g>
				<g>
					
						<line style="fill:none;stroke:#263238;stroke-width:2;stroke-miterlimit:10;" x1="91.491" y1="306.395" x2="85.127" y2="296.03"/>
					<path style="fill:#92E3A9;stroke:#263238;stroke-miterlimit:10;" d="M87.068,299.143c0,0,1.039-3.774-1.796-7.626
						c-1.706-2.318-11.781-9.293-13.649-5.621C69.592,289.89,79.156,300.586,87.068,299.143z"/>
					
						<line style="fill:none;stroke:#263238;stroke-width:0.5;stroke-miterlimit:10;" x1="87.068" y1="299.143" x2="77.925" y2="290.371"/>
				</g>
				<g>
					
						<line style="fill:none;stroke:#263238;stroke-width:2;stroke-miterlimit:10;" x1="94.894" y1="273.599" x2="88.53" y2="263.235"/>
					<path style="fill:#92E3A9;stroke:#263238;stroke-miterlimit:10;" d="M90.471,266.348c0,0,1.039-3.774-1.796-7.626
						c-1.706-2.318-11.781-9.293-13.649-5.621C72.995,257.095,82.559,267.791,90.471,266.348z"/>
					
						<line style="fill:none;stroke:#263238;stroke-width:0.5;stroke-miterlimit:10;" x1="90.471" y1="266.348" x2="81.328" y2="257.576"/>
				</g>
				<g>
					
						<line style="fill:none;stroke:#263238;stroke-width:2;stroke-miterlimit:10;" x1="84.087" y1="376.17" x2="92.443" y2="367.334"/>
					<path style="fill:#92E3A9;stroke:#263238;stroke-miterlimit:10;" d="M89.904,369.981c0,0-0.242-3.907,3.324-7.095
						c2.145-1.918,13.438-6.677,14.512-2.699C108.908,364.514,97.352,373.018,89.904,369.981z"/>
					
						<line style="fill:none;stroke:#263238;stroke-width:0.5;stroke-miterlimit:10;" x1="89.904" y1="369.981" x2="101.285" y2="362.918"/>
				</g>
				<g>
					
						<line style="fill:none;stroke:#263238;stroke-width:2;stroke-miterlimit:10;" x1="89.576" y1="323.274" x2="97.932" y2="314.438"/>
					<path style="fill:#92E3A9;stroke:#263238;stroke-miterlimit:10;" d="M95.393,317.085c0,0-0.242-3.906,3.324-7.095
						c2.145-1.918,13.438-6.677,14.512-2.699C114.397,311.618,102.841,320.122,95.393,317.085z"/>
					
						<line style="fill:none;stroke:#263238;stroke-width:0.5;stroke-miterlimit:10;" x1="95.393" y1="317.085" x2="106.774" y2="310.022"/>
				</g>
				<g>
					
						<line style="fill:none;stroke:#263238;stroke-width:2;stroke-miterlimit:10;" x1="91.988" y1="300.028" x2="100.344" y2="291.192"/>
					<path style="fill:#92E3A9;stroke:#263238;stroke-miterlimit:10;" d="M97.805,293.84c0,0-0.242-3.906,3.324-7.095
						c2.145-1.918,13.438-6.677,14.512-2.699C116.809,288.372,105.253,296.876,97.805,293.84z"/>
					
						<line style="fill:none;stroke:#263238;stroke-width:0.5;stroke-miterlimit:10;" x1="97.805" y1="293.84" x2="109.186" y2="286.777"/>
				</g>
				<g>
					
						<line style="fill:none;stroke:#263238;stroke-width:2;stroke-miterlimit:10;" x1="95.524" y1="265.95" x2="103.88" y2="257.113"/>
					<path style="fill:#92E3A9;stroke:#263238;stroke-miterlimit:10;" d="M101.341,259.761c0,0-0.242-3.906,3.324-7.094
						c2.145-1.918,13.438-6.677,14.512-2.699C120.345,254.294,108.789,262.798,101.341,259.761z"/>
					
						<line style="fill:none;stroke:#263238;stroke-width:0.5;stroke-miterlimit:10;" x1="101.341" y1="259.761" x2="112.722" y2="252.698"/>
					<path style="fill:#92E3A9;stroke:#263238;stroke-miterlimit:10;" d="M97.349,244.07c0,0-0.242-3.906,3.324-7.094
						c2.145-1.918,13.438-6.677,14.512-2.699C116.353,238.602,104.796,247.107,97.349,244.07z"/>
					
						<line style="fill:none;stroke:#263238;stroke-width:0.5;stroke-miterlimit:10;" x1="97.349" y1="244.07" x2="108.73" y2="237.007"/>
					<path style="fill:#92E3A9;stroke:#263238;stroke-miterlimit:10;" d="M97.816,244.576c0,0-3.91-0.169-6.707-4.049
						c-1.683-2.334-5.231-14.064-1.162-14.715C94.371,225.103,101.617,237.488,97.816,244.576z"/>
					
						<line style="fill:none;stroke:#263238;stroke-width:0.5;stroke-miterlimit:10;" x1="97.816" y1="244.576" x2="91.985" y2="232.517"/>
				</g>
			</g>
		</g>
		
			<line style="fill:none;stroke:#263238;stroke-width:2;stroke-miterlimit:10;" x1="76.281" y1="173.091" x2="76.281" y2="396.596"/>
		<g>
			<g>
				
					<line style="fill:none;stroke:#263238;stroke-width:2;stroke-miterlimit:10;" x1="76.459" y1="362.991" x2="69.06" y2="353.339"/>
				<path style="fill:#92E3A9;stroke:#263238;stroke-miterlimit:10;" d="M71.312,356.234c0,0,0.643-3.861-2.574-7.4
					c-1.936-2.129-12.677-8.028-14.156-4.182C52.973,348.835,63.59,358.486,71.312,356.234z"/>
				
					<line style="fill:none;stroke:#263238;stroke-width:0.5;stroke-miterlimit:10;" x1="71.312" y1="356.234" x2="61.312" y2="348.453"/>
			</g>
			<g>
				
					<line style="fill:none;stroke:#263238;stroke-width:2;stroke-miterlimit:10;" x1="76.459" y1="320.988" x2="69.06" y2="311.336"/>
				<path style="fill:#92E3A9;stroke:#263238;stroke-miterlimit:10;" d="M71.312,314.232c0,0,0.643-3.861-2.574-7.4
					c-1.936-2.129-12.677-8.028-14.156-4.182C52.973,306.832,63.59,316.484,71.312,314.232z"/>
				
					<line style="fill:none;stroke:#263238;stroke-width:0.5;stroke-miterlimit:10;" x1="71.312" y1="314.232" x2="61.312" y2="306.451"/>
			</g>
			<g>
				
					<line style="fill:none;stroke:#263238;stroke-width:2;stroke-miterlimit:10;" x1="76.459" y1="271.674" x2="69.06" y2="262.023"/>
				<path style="fill:#92E3A9;stroke:#263238;stroke-miterlimit:10;" d="M71.312,264.918c0,0,0.643-3.861-2.574-7.4
					c-1.936-2.129-12.677-8.028-14.156-4.182C52.973,257.518,63.59,267.17,71.312,264.918z"/>
				
					<line style="fill:none;stroke:#263238;stroke-width:0.5;stroke-miterlimit:10;" x1="71.312" y1="264.918" x2="61.312" y2="257.137"/>
			</g>
			<g>
				
					<line style="fill:none;stroke:#263238;stroke-width:2;stroke-miterlimit:10;" x1="76.459" y1="238.846" x2="69.06" y2="229.195"/>
				<path style="fill:#92E3A9;stroke:#263238;stroke-miterlimit:10;" d="M71.312,232.09c0,0,0.643-3.861-2.574-7.4
					c-1.936-2.129-12.677-8.028-14.156-4.182C52.973,224.691,63.59,234.342,71.312,232.09z"/>
				
					<line style="fill:none;stroke:#263238;stroke-width:0.5;stroke-miterlimit:10;" x1="71.312" y1="232.09" x2="61.312" y2="224.309"/>
			</g>
			<g>
				
					<line style="fill:none;stroke:#263238;stroke-width:2;stroke-miterlimit:10;" x1="76.459" y1="205.875" x2="69.06" y2="196.223"/>
				<path style="fill:#92E3A9;stroke:#263238;stroke-miterlimit:10;" d="M71.312,199.119c0,0,0.643-3.861-2.574-7.4
					c-1.936-2.129-12.677-8.028-14.156-4.182C52.973,191.719,63.59,201.371,71.312,199.119z"/>
				
					<line style="fill:none;stroke:#263238;stroke-width:0.5;stroke-miterlimit:10;" x1="71.312" y1="199.119" x2="61.312" y2="191.338"/>
			</g>
			<g>
				
					<line style="fill:none;stroke:#263238;stroke-width:2;stroke-miterlimit:10;" x1="76.296" y1="375.816" x2="83.696" y2="366.165"/>
				<path style="fill:#92E3A9;stroke:#263238;stroke-miterlimit:10;" d="M81.443,369.06c0,0-0.643-3.861,2.574-7.4
					c1.936-2.129,12.677-8.028,14.156-4.182C99.782,361.661,89.165,371.312,81.443,369.06z"/>
				
					<line style="fill:none;stroke:#263238;stroke-width:0.5;stroke-miterlimit:10;" x1="81.443" y1="369.06" x2="92.035" y2="360.861"/>
			</g>
			<g>
				
					<line style="fill:none;stroke:#263238;stroke-width:2;stroke-miterlimit:10;" x1="76.296" y1="309.014" x2="83.696" y2="299.362"/>
				<path style="fill:#92E3A9;stroke:#263238;stroke-miterlimit:10;" d="M81.443,302.258c0,0-0.643-3.861,2.574-7.4
					c1.936-2.129,12.677-8.028,14.156-4.182C99.782,294.858,89.165,304.51,81.443,302.258z"/>
				
					<line style="fill:none;stroke:#263238;stroke-width:0.5;stroke-miterlimit:10;" x1="81.443" y1="302.258" x2="92.035" y2="294.058"/>
			</g>
			<g>
				
					<line style="fill:none;stroke:#263238;stroke-width:2;stroke-miterlimit:10;" x1="76.296" y1="276.043" x2="83.696" y2="266.391"/>
				<path style="fill:#92E3A9;stroke:#263238;stroke-miterlimit:10;" d="M81.443,269.286c0,0-0.643-3.861,2.574-7.4
					c1.936-2.129,12.677-8.028,14.156-4.182C99.782,261.887,89.165,271.538,81.443,269.286z"/>
				
					<line style="fill:none;stroke:#263238;stroke-width:0.5;stroke-miterlimit:10;" x1="81.443" y1="269.286" x2="92.035" y2="261.086"/>
			</g>
			<g>
				
					<line style="fill:none;stroke:#263238;stroke-width:2;stroke-miterlimit:10;" x1="76.296" y1="232.463" x2="83.696" y2="222.811"/>
				<path style="fill:#92E3A9;stroke:#263238;stroke-miterlimit:10;" d="M81.443,225.707c0,0-0.643-3.861,2.574-7.4
					c1.936-2.129,12.677-8.028,14.156-4.183C99.782,218.307,89.165,227.959,81.443,225.707z"/>
				
					<line style="fill:none;stroke:#263238;stroke-width:0.5;stroke-miterlimit:10;" x1="81.443" y1="225.707" x2="92.035" y2="217.507"/>
			</g>
			<g>
				
					<line style="fill:none;stroke:#263238;stroke-width:2;stroke-miterlimit:10;" x1="76.296" y1="198.202" x2="83.696" y2="188.55"/>
				<path style="fill:#92E3A9;stroke:#263238;stroke-miterlimit:10;" d="M81.443,191.445c0,0-0.643-3.861,2.574-7.4
					c1.936-2.129,12.677-8.028,14.156-4.182C99.782,184.046,89.165,193.697,81.443,191.445z"/>
				
					<line style="fill:none;stroke:#263238;stroke-width:0.5;stroke-miterlimit:10;" x1="81.443" y1="191.445" x2="92.035" y2="183.246"/>
				<path style="fill:#92E3A9;stroke:#263238;stroke-miterlimit:10;" d="M75.853,176.25c0,0-0.644-3.861,2.574-7.4
					c1.936-2.129,12.677-8.028,14.156-4.182C94.191,168.85,83.574,178.502,75.853,176.25z"/>
				
					<line style="fill:none;stroke:#263238;stroke-width:0.5;stroke-miterlimit:10;" x1="75.853" y1="176.25" x2="86.444" y2="168.05"/>
				<path style="fill:#92E3A9;stroke:#263238;stroke-miterlimit:10;" d="M76.369,176.705c0,0-3.907,0.235-7.089-3.336
					c-1.915-2.148-6.654-13.449-2.675-14.516C70.934,157.692,79.419,169.263,76.369,176.705z"/>
				
					<line style="fill:none;stroke:#263238;stroke-width:0.5;stroke-miterlimit:10;" x1="76.369" y1="176.705" x2="69.326" y2="165.313"/>
			</g>
		</g>
		<polygon style="fill:#263238;stroke:#263238;stroke-miterlimit:10;" points="85.476,454.565 61.806,454.565 58.847,394.785 
			88.435,394.785 		"/>
	</g>
	<g>
		<path style="fill:#92E3A9;" d="M379.338,315.424c0,0,0.126-3.271,1.51-5.536c1.384-2.265,6.416-3.9,9.058-2.768
			c2.642,1.132,3.9,1.887,3.9,1.887s-3.9,1.132-7.423,3.523C382.861,314.921,379.338,315.424,379.338,315.424z"/>
		<path style="fill:#92E3A9;" d="M374.054,317.06c0,0,3.019-2.894,3.523-6.919c0.503-4.026-3.774,1.684-3.774,1.684
			s-2.139-8.1-3.397-3.571C369.148,312.782,374.054,317.06,374.054,317.06z"/>
		<path style="fill:#92E3A9;" d="M368.267,315.802c0,0,0.755-3.774-0.629-6.416c-1.384-2.642-5.032-2.39-8.681-1.258
			c-3.648,1.132-4.781,1.132-4.781,1.132s4.277,2.894,7.926,4.403C365.751,315.172,368.267,315.802,368.267,315.802z"/>
		<g>
			<path style="fill:#263238;" d="M374.02,329.359c0.18,0,0.325-0.146,0.325-0.325v-17.99c0-0.18-0.146-0.325-0.325-0.325
				c-0.18,0-0.325,0.145-0.325,0.325v17.99C373.695,329.213,373.841,329.359,374.02,329.359z"/>
		</g>
		<g>
			<path style="fill:#263238;" d="M372.51,329.359c0.015,0,0.03-0.001,0.045-0.003c0.178-0.024,0.302-0.189,0.277-0.366
				c-0.062-0.451-1.582-11.109-6.744-17.028c-0.118-0.136-0.324-0.149-0.46-0.031c-0.135,0.118-0.149,0.324-0.031,0.459
				c5.033,5.77,6.576,16.58,6.591,16.689C372.211,329.241,372.351,329.359,372.51,329.359z"/>
		</g>
		<g>
			<path style="fill:#263238;" d="M375.53,329.107c0.001,0,0.003,0,0.004,0c0.18-0.002,0.323-0.15,0.322-0.329
				c-0.001-0.103-0.048-10.344,6.043-15.216c0.14-0.113,0.163-0.317,0.051-0.458c-0.113-0.14-0.317-0.162-0.457-0.051
				c-6.342,5.073-6.292,15.3-6.287,15.732C375.207,328.964,375.352,329.107,375.53,329.107z"/>
		</g>
		<g>
			<path style="fill:#263238;" d="M370.498,328.981c0.028,0,0.057-0.004,0.084-0.011c0.173-0.047,0.276-0.225,0.229-0.399
				c-0.036-0.136-0.919-3.361-2.944-6.145c-0.105-0.146-0.309-0.177-0.454-0.072c-0.145,0.105-0.177,0.309-0.072,0.454
				c1.955,2.688,2.834,5.9,2.843,5.932C370.223,328.886,370.354,328.981,370.498,328.981z"/>
			<path style="fill:#92E3A9;" d="M368.518,323.979c0,0,0.126-3.523-1.384-4.026c-1.51-0.503-2.894,0.755-4.026,1.51
				c-1.132,0.755-2.39,1.51-2.39,3.774c0,2.265,0.881,6.416,0.881,6.416s1.258-3.9,3.397-5.661
				C367.135,324.231,368.518,323.979,368.518,323.979z"/>
		</g>
		<g>
			<path style="fill:#263238;" d="M377.795,329.107c0.138,0,0.266-0.088,0.31-0.226c0.009-0.031,1.007-3.075,3.288-4.876
				c0.141-0.111,0.165-0.316,0.054-0.457c-0.112-0.14-0.316-0.165-0.457-0.054c-2.44,1.926-3.463,5.056-3.505,5.188
				c-0.055,0.171,0.04,0.354,0.211,0.409C377.729,329.102,377.762,329.107,377.795,329.107z"/>
			<path style="fill:#92E3A9;" d="M379.338,325.111c0,0-0.503-2.265,0.755-3.9c1.258-1.635,4.277-1.258,5.787,0.503
				c1.51,1.761,3.648,7.045,3.648,7.045s-3.019-2.39-6.542-2.39C379.464,326.369,379.338,325.111,379.338,325.111z"/>
		</g>
		<polygon style="fill:#263238;stroke:#263238;stroke-linecap:round;stroke-linejoin:round;stroke-miterlimit:10;" points="
			369.313,348.392 379.354,348.392 384.374,331.786 364.292,331.786 		"/>
		
			<rect x="364.236" y="329.033" transform="matrix(-1 -1.224647e-16 1.224647e-16 -1 748.6666 660.8187)" style="fill:#263238;stroke:#263238;stroke-linecap:round;stroke-linejoin:round;stroke-miterlimit:10;" width="20.195" height="2.753"/>
	</g>
</g>
<g id="Graphics">
	<g style="opacity:0.2;">
		<path d="M382.262,279.488c-0.678-0.217-0.895-0.732-0.705-1.275l0.054-0.135c0.217-0.57,0.678-0.759,1.302-0.57
			c0.596,0.217,1.573,0.705,2.305,1.22c-0.244-0.841-0.434-1.98-0.434-2.657c0-0.624,0.352-1.058,0.976-1.058h0.136
			c0.624,0,0.976,0.434,0.976,1.058c0,0.678-0.19,1.817-0.434,2.657c0.759-0.515,1.708-1.003,2.305-1.22
			c0.596-0.19,1.112,0,1.302,0.597l0.027,0.081c0.19,0.624,0,1.084-0.678,1.302c-0.624,0.19-1.681,0.353-2.576,0.38
			c0.678,0.515,1.518,1.274,1.925,1.817c0.352,0.488,0.298,1.057-0.163,1.41l-0.109,0.081c-0.515,0.38-1.03,0.271-1.437-0.271
			c-0.38-0.543-0.841-1.437-1.193-2.359c-0.38,0.922-0.841,1.817-1.22,2.359c-0.407,0.542-0.922,0.651-1.437,0.271l-0.109-0.081
			c-0.488-0.353-0.515-0.922-0.163-1.41c0.407-0.543,1.247-1.302,1.925-1.844C383.97,279.841,382.886,279.678,382.262,279.488z"/>
		<path d="M392.403,279.488c-0.678-0.217-0.895-0.732-0.705-1.275l0.054-0.135c0.217-0.57,0.678-0.759,1.302-0.57
			c0.596,0.217,1.573,0.705,2.305,1.22c-0.244-0.841-0.434-1.98-0.434-2.657c0-0.624,0.352-1.058,0.976-1.058h0.136
			c0.624,0,0.976,0.434,0.976,1.058c0,0.678-0.19,1.817-0.434,2.657c0.759-0.515,1.708-1.003,2.305-1.22
			c0.596-0.19,1.112,0,1.301,0.597l0.027,0.081c0.19,0.624,0,1.084-0.678,1.302c-0.624,0.19-1.681,0.353-2.576,0.38
			c0.678,0.515,1.518,1.274,1.926,1.817c0.352,0.488,0.298,1.057-0.163,1.41l-0.109,0.081c-0.515,0.38-1.03,0.271-1.437-0.271
			c-0.38-0.543-0.841-1.437-1.193-2.359c-0.38,0.922-0.841,1.817-1.22,2.359c-0.407,0.542-0.922,0.651-1.437,0.271l-0.108-0.081
			c-0.488-0.353-0.515-0.922-0.163-1.41c0.407-0.543,1.247-1.302,1.925-1.844C394.111,279.841,393.026,279.678,392.403,279.488z"/>
		<path d="M402.543,279.488c-0.678-0.217-0.895-0.732-0.705-1.275l0.054-0.135c0.217-0.57,0.678-0.759,1.302-0.57
			c0.597,0.217,1.573,0.705,2.305,1.22c-0.244-0.841-0.434-1.98-0.434-2.657c0-0.624,0.352-1.058,0.976-1.058h0.136
			c0.624,0,0.976,0.434,0.976,1.058c0,0.678-0.19,1.817-0.434,2.657c0.759-0.515,1.709-1.003,2.305-1.22
			c0.596-0.19,1.112,0,1.301,0.597l0.027,0.081c0.19,0.624,0,1.084-0.678,1.302c-0.624,0.19-1.681,0.353-2.576,0.38
			c0.678,0.515,1.518,1.274,1.926,1.817c0.352,0.488,0.298,1.057-0.163,1.41l-0.108,0.081c-0.515,0.38-1.03,0.271-1.437-0.271
			c-0.38-0.543-0.841-1.437-1.193-2.359c-0.38,0.922-0.841,1.817-1.22,2.359c-0.407,0.542-0.922,0.651-1.437,0.271l-0.108-0.081
			c-0.488-0.353-0.515-0.922-0.163-1.41c0.407-0.543,1.248-1.302,1.926-1.844C404.251,279.841,403.167,279.678,402.543,279.488z"/>
		<path d="M412.683,279.488c-0.678-0.217-0.895-0.732-0.705-1.275l0.054-0.135c0.217-0.57,0.678-0.759,1.302-0.57
			c0.596,0.217,1.573,0.705,2.305,1.22c-0.244-0.841-0.434-1.98-0.434-2.657c0-0.624,0.352-1.058,0.976-1.058h0.136
			c0.624,0,0.976,0.434,0.976,1.058c0,0.678-0.19,1.817-0.434,2.657c0.759-0.515,1.708-1.003,2.305-1.22
			c0.596-0.19,1.112,0,1.302,0.597l0.027,0.081c0.19,0.624,0,1.084-0.678,1.302c-0.624,0.19-1.682,0.353-2.576,0.38
			c0.678,0.515,1.519,1.274,1.926,1.817c0.352,0.488,0.298,1.057-0.163,1.41l-0.108,0.081c-0.515,0.38-1.03,0.271-1.437-0.271
			c-0.38-0.543-0.841-1.437-1.193-2.359c-0.38,0.922-0.841,1.817-1.22,2.359c-0.407,0.542-0.922,0.651-1.437,0.271l-0.109-0.081
			c-0.488-0.353-0.515-0.922-0.163-1.41c0.407-0.543,1.247-1.302,1.925-1.844C414.392,279.841,413.307,279.678,412.683,279.488z"/>
		<path d="M422.824,279.488c-0.678-0.217-0.895-0.732-0.705-1.275l0.054-0.135c0.217-0.57,0.678-0.759,1.302-0.57
			c0.596,0.217,1.573,0.705,2.305,1.22c-0.244-0.841-0.434-1.98-0.434-2.657c0-0.624,0.353-1.058,0.976-1.058h0.136
			c0.623,0,0.976,0.434,0.976,1.058c0,0.678-0.19,1.817-0.434,2.657c0.759-0.515,1.708-1.003,2.305-1.22
			c0.597-0.19,1.112,0,1.302,0.597l0.027,0.081c0.189,0.624,0,1.084-0.678,1.302c-0.624,0.19-1.681,0.353-2.577,0.38
			c0.678,0.515,1.519,1.274,1.926,1.817c0.353,0.488,0.298,1.057-0.162,1.41l-0.109,0.081c-0.515,0.38-1.03,0.271-1.437-0.271
			c-0.379-0.543-0.84-1.437-1.193-2.359c-0.38,0.922-0.841,1.817-1.22,2.359c-0.407,0.542-0.922,0.651-1.437,0.271l-0.109-0.081
			c-0.488-0.353-0.515-0.922-0.162-1.41c0.406-0.543,1.247-1.302,1.925-1.844C424.532,279.841,423.448,279.678,422.824,279.488z"/>
		<path d="M432.965,279.488c-0.678-0.217-0.895-0.732-0.705-1.275l0.054-0.135c0.217-0.57,0.678-0.759,1.302-0.57
			c0.596,0.217,1.573,0.705,2.305,1.22c-0.244-0.841-0.434-1.98-0.434-2.657c0-0.624,0.353-1.058,0.976-1.058h0.136
			c0.623,0,0.976,0.434,0.976,1.058c0,0.678-0.19,1.817-0.434,2.657c0.759-0.515,1.708-1.003,2.305-1.22
			c0.597-0.19,1.112,0,1.302,0.597l0.027,0.081c0.189,0.624,0,1.084-0.678,1.302c-0.624,0.19-1.681,0.353-2.576,0.38
			c0.677,0.515,1.518,1.274,1.925,1.817c0.353,0.488,0.298,1.057-0.162,1.41l-0.109,0.081c-0.515,0.38-1.03,0.271-1.437-0.271
			c-0.379-0.543-0.84-1.437-1.193-2.359c-0.38,0.922-0.841,1.817-1.22,2.359c-0.407,0.542-0.922,0.651-1.437,0.271l-0.109-0.081
			c-0.488-0.353-0.515-0.922-0.162-1.41c0.406-0.543,1.247-1.302,1.926-1.844C434.673,279.841,433.589,279.678,432.965,279.488z"/>
		<path d="M443.105,279.488c-0.678-0.217-0.894-0.732-0.705-1.275l0.055-0.135c0.216-0.57,0.677-0.759,1.301-0.57
			c0.596,0.217,1.573,0.705,2.305,1.22c-0.244-0.841-0.434-1.98-0.434-2.657c0-0.624,0.353-1.058,0.976-1.058h0.136
			c0.623,0,0.976,0.434,0.976,1.058c0,0.678-0.19,1.817-0.434,2.657c0.759-0.515,1.708-1.003,2.305-1.22
			c0.597-0.19,1.112,0,1.302,0.597l0.027,0.081c0.189,0.624,0,1.084-0.678,1.302c-0.624,0.19-1.681,0.353-2.577,0.38
			c0.678,0.515,1.519,1.274,1.926,1.817c0.353,0.488,0.298,1.057-0.162,1.41l-0.109,0.081c-0.515,0.38-1.03,0.271-1.437-0.271
			c-0.379-0.543-0.84-1.437-1.193-2.359c-0.38,0.922-0.841,1.817-1.22,2.359c-0.407,0.542-0.922,0.651-1.437,0.271l-0.109-0.081
			c-0.488-0.353-0.515-0.922-0.162-1.41c0.406-0.543,1.247-1.302,1.926-1.844C444.814,279.841,443.729,279.678,443.105,279.488z"/>
		<path d="M453.245,279.488c-0.678-0.217-0.894-0.732-0.705-1.275l0.055-0.135c0.216-0.57,0.677-0.759,1.301-0.57
			c0.596,0.217,1.573,0.705,2.305,1.22c-0.244-0.841-0.434-1.98-0.434-2.657c0-0.624,0.353-1.058,0.976-1.058h0.136
			c0.623,0,0.976,0.434,0.976,1.058c0,0.678-0.19,1.817-0.434,2.657c0.759-0.515,1.708-1.003,2.305-1.22
			c0.597-0.19,1.112,0,1.302,0.597l0.027,0.081c0.189,0.624,0,1.084-0.678,1.302c-0.624,0.19-1.681,0.353-2.577,0.38
			c0.678,0.515,1.519,1.274,1.926,1.817c0.353,0.488,0.298,1.057-0.162,1.41l-0.109,0.081c-0.515,0.38-1.03,0.271-1.437-0.271
			c-0.379-0.543-0.84-1.437-1.193-2.359c-0.38,0.922-0.841,1.817-1.22,2.359c-0.407,0.542-0.922,0.651-1.437,0.271l-0.109-0.081
			c-0.488-0.353-0.515-0.922-0.162-1.41c0.406-0.543,1.247-1.302,1.926-1.844C454.954,279.841,453.869,279.678,453.245,279.488z"/>
	</g>
	<g style="opacity:0.2;">
		<path d="M182.787,54.98c-0.678-0.217-0.895-0.732-0.705-1.274l0.054-0.136c0.217-0.57,0.678-0.759,1.302-0.57
			c0.596,0.217,1.573,0.705,2.305,1.22c-0.244-0.841-0.434-1.979-0.434-2.657c0-0.624,0.352-1.058,0.976-1.058h0.136
			c0.624,0,0.976,0.434,0.976,1.058c0,0.678-0.19,1.817-0.434,2.657c0.759-0.515,1.708-1.003,2.305-1.22
			c0.596-0.19,1.112,0,1.301,0.597l0.027,0.081c0.19,0.624,0,1.084-0.678,1.301c-0.624,0.19-1.681,0.353-2.576,0.38
			c0.678,0.515,1.518,1.275,1.926,1.817c0.352,0.488,0.298,1.057-0.163,1.41l-0.109,0.082c-0.515,0.38-1.03,0.271-1.437-0.271
			c-0.38-0.543-0.841-1.437-1.193-2.359c-0.38,0.922-0.841,1.817-1.22,2.359c-0.407,0.542-0.922,0.651-1.437,0.271l-0.109-0.082
			c-0.488-0.353-0.515-0.922-0.163-1.41c0.407-0.542,1.247-1.302,1.925-1.844C184.495,55.332,183.411,55.17,182.787,54.98z"/>
		<path d="M192.928,54.98c-0.678-0.217-0.895-0.732-0.705-1.274l0.054-0.136c0.217-0.57,0.678-0.759,1.302-0.57
			c0.596,0.217,1.573,0.705,2.305,1.22c-0.244-0.841-0.434-1.979-0.434-2.657c0-0.624,0.352-1.058,0.976-1.058h0.136
			c0.624,0,0.976,0.434,0.976,1.058c0,0.678-0.19,1.817-0.434,2.657c0.759-0.515,1.708-1.003,2.305-1.22
			c0.596-0.19,1.112,0,1.301,0.597l0.027,0.081c0.19,0.624,0,1.084-0.678,1.301c-0.624,0.19-1.682,0.353-2.576,0.38
			c0.678,0.515,1.519,1.275,1.926,1.817c0.352,0.488,0.298,1.057-0.163,1.41l-0.109,0.082c-0.515,0.38-1.03,0.271-1.437-0.271
			c-0.38-0.543-0.841-1.437-1.193-2.359c-0.38,0.922-0.841,1.817-1.22,2.359c-0.407,0.542-0.922,0.651-1.437,0.271l-0.109-0.082
			c-0.488-0.353-0.515-0.922-0.163-1.41c0.407-0.542,1.247-1.302,1.925-1.844C194.636,55.332,193.551,55.17,192.928,54.98z"/>
		<path d="M203.068,54.98c-0.678-0.217-0.895-0.732-0.705-1.274l0.054-0.136c0.217-0.57,0.678-0.759,1.301-0.57
			c0.597,0.217,1.573,0.705,2.305,1.22c-0.244-0.841-0.434-1.979-0.434-2.657c0-0.624,0.352-1.058,0.976-1.058h0.136
			c0.624,0,0.976,0.434,0.976,1.058c0,0.678-0.19,1.817-0.434,2.657c0.759-0.515,1.708-1.003,2.305-1.22
			c0.596-0.19,1.111,0,1.301,0.597l0.027,0.081c0.19,0.624,0,1.084-0.678,1.301c-0.624,0.19-1.681,0.353-2.576,0.38
			c0.678,0.515,1.518,1.275,1.926,1.817c0.352,0.488,0.298,1.057-0.163,1.41l-0.109,0.082c-0.515,0.38-1.03,0.271-1.437-0.271
			c-0.38-0.543-0.841-1.437-1.193-2.359c-0.38,0.922-0.841,1.817-1.22,2.359c-0.407,0.542-0.922,0.651-1.437,0.271l-0.108-0.082
			c-0.488-0.353-0.515-0.922-0.163-1.41c0.407-0.542,1.248-1.302,1.926-1.844C204.776,55.332,203.692,55.17,203.068,54.98z"/>
		<path d="M213.208,54.98c-0.678-0.217-0.895-0.732-0.705-1.274l0.054-0.136c0.217-0.57,0.678-0.759,1.302-0.57
			c0.596,0.217,1.573,0.705,2.305,1.22c-0.244-0.841-0.434-1.979-0.434-2.657c0-0.624,0.352-1.058,0.976-1.058h0.136
			c0.624,0,0.976,0.434,0.976,1.058c0,0.678-0.19,1.817-0.434,2.657c0.759-0.515,1.709-1.003,2.305-1.22
			c0.596-0.19,1.112,0,1.301,0.597l0.027,0.081c0.19,0.624,0,1.084-0.678,1.301c-0.624,0.19-1.682,0.353-2.576,0.38
			c0.678,0.515,1.518,1.275,1.925,1.817c0.352,0.488,0.298,1.057-0.163,1.41l-0.108,0.082c-0.515,0.38-1.03,0.271-1.437-0.271
			c-0.38-0.543-0.841-1.437-1.193-2.359c-0.38,0.922-0.841,1.817-1.22,2.359c-0.407,0.542-0.922,0.651-1.437,0.271l-0.109-0.082
			c-0.488-0.353-0.515-0.922-0.163-1.41c0.407-0.542,1.247-1.302,1.925-1.844C214.917,55.332,213.832,55.17,213.208,54.98z"/>
		<path d="M223.349,54.98c-0.678-0.217-0.895-0.732-0.705-1.274l0.054-0.136C222.915,53,223.376,52.81,224,53
			c0.596,0.217,1.573,0.705,2.305,1.22c-0.244-0.841-0.434-1.979-0.434-2.657c0-0.624,0.353-1.058,0.976-1.058h0.136
			c0.623,0,0.976,0.434,0.976,1.058c0,0.678-0.19,1.817-0.434,2.657c0.759-0.515,1.708-1.003,2.305-1.22
			c0.597-0.19,1.112,0,1.302,0.597l0.027,0.081c0.189,0.624,0,1.084-0.678,1.301c-0.624,0.19-1.681,0.353-2.577,0.38
			c0.678,0.515,1.519,1.275,1.926,1.817c0.353,0.488,0.298,1.057-0.162,1.41l-0.109,0.082c-0.515,0.38-1.03,0.271-1.437-0.271
			c-0.379-0.543-0.84-1.437-1.193-2.359c-0.38,0.922-0.841,1.817-1.22,2.359c-0.407,0.542-0.922,0.651-1.437,0.271l-0.109-0.082
			c-0.488-0.353-0.515-0.922-0.162-1.41c0.406-0.542,1.247-1.302,1.925-1.844C225.057,55.332,223.973,55.17,223.349,54.98z"/>
		<path d="M233.49,54.98c-0.678-0.217-0.895-0.732-0.705-1.274l0.054-0.136c0.217-0.57,0.678-0.759,1.302-0.57
			c0.596,0.217,1.573,0.705,2.305,1.22c-0.244-0.841-0.434-1.979-0.434-2.657c0-0.624,0.353-1.058,0.976-1.058h0.136
			c0.623,0,0.976,0.434,0.976,1.058c0,0.678-0.19,1.817-0.434,2.657c0.759-0.515,1.709-1.003,2.305-1.22
			c0.597-0.19,1.112,0,1.302,0.597l0.027,0.081c0.189,0.624,0,1.084-0.678,1.301c-0.624,0.19-1.681,0.353-2.576,0.38
			c0.677,0.515,1.519,1.275,1.925,1.817c0.353,0.488,0.298,1.057-0.162,1.41l-0.109,0.082c-0.515,0.38-1.03,0.271-1.437-0.271
			c-0.379-0.543-0.84-1.437-1.193-2.359c-0.38,0.922-0.841,1.817-1.22,2.359c-0.407,0.542-0.922,0.651-1.437,0.271l-0.109-0.082
			c-0.488-0.353-0.515-0.922-0.162-1.41c0.406-0.542,1.247-1.302,1.926-1.844C235.198,55.332,234.114,55.17,233.49,54.98z"/>
		<path d="M243.63,54.98c-0.678-0.217-0.894-0.732-0.705-1.274l0.055-0.136c0.216-0.57,0.677-0.759,1.301-0.57
			c0.596,0.217,1.573,0.705,2.305,1.22c-0.244-0.841-0.434-1.979-0.434-2.657c0-0.624,0.353-1.058,0.976-1.058h0.136
			c0.623,0,0.976,0.434,0.976,1.058c0,0.678-0.19,1.817-0.434,2.657c0.759-0.515,1.708-1.003,2.305-1.22
			c0.597-0.19,1.112,0,1.302,0.597l0.027,0.081c0.189,0.624,0,1.084-0.678,1.301c-0.624,0.19-1.681,0.353-2.577,0.38
			c0.678,0.515,1.519,1.275,1.925,1.817c0.353,0.488,0.298,1.057-0.162,1.41l-0.109,0.082c-0.515,0.38-1.03,0.271-1.437-0.271
			c-0.379-0.543-0.84-1.437-1.193-2.359c-0.38,0.922-0.841,1.817-1.22,2.359c-0.407,0.542-0.922,0.651-1.437,0.271l-0.109-0.082
			c-0.488-0.353-0.515-0.922-0.162-1.41c0.406-0.542,1.247-1.302,1.925-1.844C245.339,55.332,244.254,55.17,243.63,54.98z"/>
		<path d="M253.77,54.98c-0.678-0.217-0.894-0.732-0.705-1.274l0.055-0.136c0.216-0.57,0.677-0.759,1.301-0.57
			c0.596,0.217,1.573,0.705,2.305,1.22c-0.244-0.841-0.434-1.979-0.434-2.657c0-0.624,0.353-1.058,0.976-1.058h0.136
			c0.623,0,0.976,0.434,0.976,1.058c0,0.678-0.19,1.817-0.434,2.657c0.759-0.515,1.709-1.003,2.305-1.22
			c0.597-0.19,1.112,0,1.302,0.597l0.027,0.081c0.189,0.624,0,1.084-0.678,1.301c-0.624,0.19-1.681,0.353-2.577,0.38
			c0.678,0.515,1.519,1.275,1.926,1.817c0.353,0.488,0.298,1.057-0.162,1.41l-0.109,0.082c-0.515,0.38-1.03,0.271-1.437-0.271
			c-0.379-0.543-0.84-1.437-1.193-2.359c-0.38,0.922-0.841,1.817-1.22,2.359c-0.407,0.542-0.922,0.651-1.437,0.271l-0.109-0.082
			c-0.488-0.353-0.515-0.922-0.162-1.41c0.406-0.542,1.247-1.302,1.925-1.844C255.479,55.332,254.394,55.17,253.77,54.98z"/>
	</g>
	<g style="opacity:0.2;">
		<path d="M267.666,371.583c-0.678-0.217-0.895-0.732-0.705-1.274l0.054-0.136c0.217-0.57,0.678-0.759,1.302-0.57
			c0.596,0.217,1.573,0.705,2.305,1.22c-0.244-0.841-0.434-1.98-0.434-2.657c0-0.624,0.352-1.058,0.976-1.058h0.136
			c0.624,0,0.976,0.434,0.976,1.058c0,0.678-0.19,1.817-0.434,2.657c0.759-0.515,1.708-1.003,2.305-1.22
			c0.596-0.19,1.112,0,1.301,0.597l0.027,0.081c0.19,0.624,0,1.084-0.678,1.301c-0.624,0.19-1.681,0.353-2.576,0.38
			c0.678,0.515,1.518,1.275,1.926,1.817c0.352,0.488,0.298,1.057-0.163,1.41l-0.109,0.081c-0.515,0.38-1.03,0.271-1.437-0.271
			c-0.38-0.543-0.841-1.437-1.193-2.359c-0.38,0.922-0.841,1.817-1.22,2.359c-0.407,0.542-0.922,0.651-1.437,0.271l-0.109-0.081
			c-0.488-0.353-0.515-0.922-0.163-1.41c0.407-0.543,1.247-1.302,1.925-1.844C269.374,371.936,268.289,371.773,267.666,371.583z"/>
		<path d="M277.806,371.583c-0.678-0.217-0.895-0.732-0.705-1.274l0.054-0.136c0.217-0.57,0.678-0.759,1.302-0.57
			c0.596,0.217,1.573,0.705,2.305,1.22c-0.244-0.841-0.434-1.98-0.434-2.657c0-0.624,0.352-1.058,0.976-1.058h0.136
			c0.624,0,0.976,0.434,0.976,1.058c0,0.678-0.19,1.817-0.434,2.657c0.759-0.515,1.709-1.003,2.305-1.22
			c0.596-0.19,1.112,0,1.301,0.597l0.027,0.081c0.19,0.624,0,1.084-0.678,1.301c-0.624,0.19-1.681,0.353-2.576,0.38
			c0.678,0.515,1.518,1.275,1.926,1.817c0.352,0.488,0.298,1.057-0.163,1.41l-0.108,0.081c-0.515,0.38-1.03,0.271-1.437-0.271
			c-0.38-0.543-0.841-1.437-1.193-2.359c-0.38,0.922-0.841,1.817-1.22,2.359c-0.407,0.542-0.922,0.651-1.437,0.271l-0.108-0.081
			c-0.488-0.353-0.515-0.922-0.163-1.41c0.407-0.543,1.247-1.302,1.925-1.844C279.515,371.936,278.43,371.773,277.806,371.583z"/>
		<path d="M287.947,371.583c-0.678-0.217-0.895-0.732-0.705-1.274l0.054-0.136c0.217-0.57,0.678-0.759,1.301-0.57
			c0.597,0.217,1.573,0.705,2.305,1.22c-0.244-0.841-0.434-1.98-0.434-2.657c0-0.624,0.352-1.058,0.976-1.058h0.136
			c0.624,0,0.976,0.434,0.976,1.058c0,0.678-0.19,1.817-0.434,2.657c0.759-0.515,1.708-1.003,2.305-1.22
			c0.596-0.19,1.112,0,1.302,0.597l0.027,0.081c0.19,0.624,0,1.084-0.678,1.301c-0.624,0.19-1.681,0.353-2.576,0.38
			c0.678,0.515,1.519,1.275,1.926,1.817c0.352,0.488,0.298,1.057-0.163,1.41l-0.109,0.081c-0.515,0.38-1.03,0.271-1.437-0.271
			c-0.38-0.543-0.841-1.437-1.193-2.359c-0.38,0.922-0.841,1.817-1.22,2.359c-0.407,0.542-0.922,0.651-1.437,0.271l-0.108-0.081
			c-0.488-0.353-0.515-0.922-0.163-1.41c0.407-0.543,1.248-1.302,1.926-1.844C289.655,371.936,288.57,371.773,287.947,371.583z"/>
		<path d="M298.087,371.583c-0.678-0.217-0.895-0.732-0.705-1.274l0.054-0.136c0.217-0.57,0.678-0.759,1.302-0.57
			c0.596,0.217,1.573,0.705,2.305,1.22c-0.244-0.841-0.434-1.98-0.434-2.657c0-0.624,0.352-1.058,0.976-1.058h0.136
			c0.624,0,0.976,0.434,0.976,1.058c0,0.678-0.19,1.817-0.434,2.657c0.759-0.515,1.708-1.003,2.305-1.22
			c0.596-0.19,1.112,0,1.301,0.597l0.027,0.081c0.19,0.624,0,1.084-0.678,1.301c-0.624,0.19-1.681,0.353-2.576,0.38
			c0.678,0.515,1.518,1.275,1.926,1.817c0.352,0.488,0.298,1.057-0.163,1.41l-0.108,0.081c-0.515,0.38-1.03,0.271-1.437-0.271
			c-0.38-0.543-0.841-1.437-1.193-2.359c-0.38,0.922-0.841,1.817-1.22,2.359c-0.407,0.542-0.922,0.651-1.437,0.271l-0.109-0.081
			c-0.488-0.353-0.515-0.922-0.163-1.41c0.407-0.543,1.247-1.302,1.925-1.844C299.795,371.936,298.71,371.773,298.087,371.583z"/>
		<path d="M308.227,371.583c-0.678-0.217-0.895-0.732-0.705-1.274l0.054-0.136c0.217-0.57,0.678-0.759,1.302-0.57
			c0.596,0.217,1.572,0.705,2.305,1.22c-0.244-0.841-0.434-1.98-0.434-2.657c0-0.624,0.353-1.058,0.976-1.058h0.136
			c0.623,0,0.976,0.434,0.976,1.058c0,0.678-0.19,1.817-0.434,2.657c0.759-0.515,1.708-1.003,2.305-1.22
			c0.597-0.19,1.112,0,1.302,0.597l0.027,0.081c0.189,0.624,0,1.084-0.678,1.301c-0.624,0.19-1.681,0.353-2.577,0.38
			c0.678,0.515,1.519,1.275,1.926,1.817c0.353,0.488,0.298,1.057-0.162,1.41l-0.109,0.081c-0.515,0.38-1.03,0.271-1.437-0.271
			c-0.379-0.543-0.84-1.437-1.193-2.359c-0.38,0.922-0.841,1.817-1.22,2.359c-0.407,0.542-0.922,0.651-1.437,0.271l-0.109-0.081
			c-0.488-0.353-0.515-0.922-0.162-1.41c0.406-0.543,1.247-1.302,1.925-1.844C309.936,371.936,308.852,371.773,308.227,371.583z"/>
		<path d="M318.368,371.583c-0.678-0.217-0.894-0.732-0.705-1.274l0.054-0.136c0.217-0.57,0.678-0.759,1.302-0.57
			c0.596,0.217,1.573,0.705,2.305,1.22c-0.244-0.841-0.434-1.98-0.434-2.657c0-0.624,0.353-1.058,0.976-1.058h0.136
			c0.623,0,0.976,0.434,0.976,1.058c0,0.678-0.19,1.817-0.434,2.657c0.759-0.515,1.708-1.003,2.305-1.22
			c0.597-0.19,1.112,0,1.302,0.597l0.027,0.081c0.189,0.624,0,1.084-0.678,1.301c-0.624,0.19-1.681,0.353-2.576,0.38
			c0.677,0.515,1.518,1.275,1.925,1.817c0.353,0.488,0.298,1.057-0.162,1.41l-0.109,0.081c-0.515,0.38-1.03,0.271-1.437-0.271
			c-0.379-0.543-0.84-1.437-1.193-2.359c-0.38,0.922-0.841,1.817-1.22,2.359c-0.407,0.542-0.922,0.651-1.437,0.271l-0.109-0.081
			c-0.488-0.353-0.515-0.922-0.162-1.41c0.406-0.543,1.247-1.302,1.926-1.844C320.077,371.936,318.992,371.773,318.368,371.583z"/>
		<path d="M328.509,371.583c-0.678-0.217-0.895-0.732-0.705-1.274l0.055-0.136c0.216-0.57,0.677-0.759,1.301-0.57
			c0.596,0.217,1.573,0.705,2.305,1.22c-0.244-0.841-0.434-1.98-0.434-2.657c0-0.624,0.353-1.058,0.976-1.058h0.136
			c0.623,0,0.976,0.434,0.976,1.058c0,0.678-0.19,1.817-0.434,2.657c0.759-0.515,1.708-1.003,2.305-1.22
			c0.597-0.19,1.112,0,1.302,0.597l0.027,0.081c0.189,0.624,0,1.084-0.678,1.301c-0.624,0.19-1.682,0.353-2.577,0.38
			c0.678,0.515,1.519,1.275,1.925,1.817c0.353,0.488,0.298,1.057-0.162,1.41l-0.109,0.081c-0.515,0.38-1.03,0.271-1.437-0.271
			c-0.379-0.543-0.84-1.437-1.193-2.359c-0.38,0.922-0.841,1.817-1.22,2.359c-0.407,0.542-0.922,0.651-1.437,0.271l-0.109-0.081
			c-0.488-0.353-0.515-0.922-0.162-1.41c0.406-0.543,1.247-1.302,1.926-1.844C330.217,371.936,329.133,371.773,328.509,371.583z"/>
		<path d="M338.649,371.583c-0.678-0.217-0.895-0.732-0.705-1.274l0.055-0.136c0.216-0.57,0.677-0.759,1.302-0.57
			c0.596,0.217,1.573,0.705,2.305,1.22c-0.244-0.841-0.434-1.98-0.434-2.657c0-0.624,0.353-1.058,0.976-1.058h0.136
			c0.623,0,0.976,0.434,0.976,1.058c0,0.678-0.19,1.817-0.434,2.657c0.759-0.515,1.708-1.003,2.305-1.22
			c0.597-0.19,1.112,0,1.302,0.597l0.027,0.081c0.189,0.624,0,1.084-0.678,1.301c-0.624,0.19-1.681,0.353-2.577,0.38
			c0.678,0.515,1.519,1.275,1.926,1.817c0.353,0.488,0.298,1.057-0.162,1.41l-0.109,0.081c-0.515,0.38-1.03,0.271-1.437-0.271
			c-0.379-0.543-0.84-1.437-1.193-2.359c-0.38,0.922-0.841,1.817-1.22,2.359c-0.407,0.542-0.922,0.651-1.437,0.271l-0.109-0.081
			c-0.488-0.353-0.515-0.922-0.162-1.41c0.406-0.543,1.247-1.302,1.925-1.844C340.357,371.936,339.273,371.773,338.649,371.583z"/>
	</g>
	<g style="opacity:0.2;">
		<g>
			<path style="fill:none;stroke:#000000;stroke-miterlimit:10;" d="M429.404,322.382v-7.118c0-4.39,3.648-7.961,8.131-7.961
				c4.484,0,8.131,3.571,8.131,7.961v7.07h3.242v-7.07c0-6.139-5.102-11.134-11.373-11.134c-6.271,0-11.373,4.995-11.373,11.134
				v7.118H429.404z"/>
		</g>
		<rect x="424.958" y="322.399" style="fill:none;stroke:#000000;stroke-miterlimit:10;" width="24.832" height="20.541"/>
		<path style="fill:none;stroke:#000000;stroke-miterlimit:10;" d="M439.956,330.93c0-1.462-1.21-2.647-2.704-2.647
			c-1.493,0-2.703,1.185-2.703,2.647c0,1.007,0.574,1.882,1.42,2.33l-0.454,4.665h3.476l-0.454-4.665
			C439.382,332.812,439.956,331.936,439.956,330.93z"/>
	</g>
	<g style="opacity:0.2;">
		<g>
			<path style="fill:none;stroke:#000000;stroke-miterlimit:10;" d="M77.614,98.983v-7.118c0-4.39,3.648-7.961,8.131-7.961
				s8.131,3.571,8.131,7.961v7.07h3.242v-7.07c0-6.14-5.102-11.134-11.373-11.134c-6.271,0-11.373,4.995-11.373,11.134v7.118H77.614
				z"/>
		</g>
		<rect x="73.168" y="99" style="fill:none;stroke:#000000;stroke-miterlimit:10;" width="24.832" height="20.541"/>
		<path style="fill:none;stroke:#000000;stroke-miterlimit:10;" d="M88.166,107.53c0-1.462-1.21-2.647-2.703-2.647
			c-1.493,0-2.703,1.185-2.703,2.647c0,1.007,0.574,1.882,1.42,2.33l-0.454,4.665h3.476l-0.454-4.665
			C87.592,109.412,88.166,108.537,88.166,107.53z"/>
	</g>
	<g style="opacity:0.2;">
		<g>
			<path style="fill:none;stroke:#000000;stroke-miterlimit:10;" d="M387.623,45.167v-4.671c0-2.881,2.394-5.224,5.336-5.224
				s5.336,2.343,5.336,5.224v4.639h2.127v-4.639c0-4.029-3.348-7.306-7.463-7.306c-4.115,0-7.463,3.278-7.463,7.306v4.671H387.623z"
				/>
		</g>
		<rect x="384.705" y="45.179" style="fill:none;stroke:#000000;stroke-miterlimit:10;" width="16.295" height="13.479"/>
		<path style="fill:none;stroke:#000000;stroke-miterlimit:10;" d="M394.547,50.776c0-0.959-0.794-1.737-1.774-1.737
			c-0.98,0-1.774,0.778-1.774,1.737c0,0.661,0.377,1.235,0.932,1.529l-0.298,3.061h2.281l-0.298-3.061
			C394.17,52.011,394.547,51.437,394.547,50.776z"/>
	</g>
</g>
<g id="Window_2">
	<g>
		<g>
			
				<rect x="117.167" y="86.616" style="fill:#FFFFFF;stroke:#263238;stroke-linecap:round;stroke-linejoin:round;stroke-miterlimit:10;" width="318.278" height="169.044"/>
			
				<rect x="172.634" y="86.616" style="fill:#D9D9D9;stroke:#263238;stroke-linecap:round;stroke-linejoin:round;stroke-miterlimit:10;" width="262.81" height="15.848"/>
			
				<rect x="228.37" y="86.616" style="fill:#A8A8A8;stroke:#263238;stroke-linecap:round;stroke-linejoin:round;stroke-miterlimit:10;" width="207.075" height="15.848"/>
			
				<rect x="116.902" y="71.135" style="fill:#263238;stroke:#263238;stroke-linecap:round;stroke-linejoin:round;stroke-miterlimit:10;" width="318.543" height="15.848"/>
			<path style="fill:#A8A8A8;stroke:#263238;stroke-linecap:round;stroke-linejoin:round;stroke-miterlimit:10;" d="M338.051,82.188
				H130.937c-1.892,0-3.426-1.534-3.426-3.426l0,0c0-1.892,1.534-3.425,3.426-3.425h207.115c1.892,0,3.426,1.534,3.426,3.425l0,0
				C341.477,80.655,339.943,82.188,338.051,82.188z"/>
			
				<circle style="fill:#FFFFFF;stroke:#263238;stroke-linecap:round;stroke-linejoin:round;stroke-miterlimit:10;" cx="400.566" cy="79.219" r="2.882"/>
			<path style="fill:#FFFFFF;stroke:#263238;stroke-linecap:round;stroke-linejoin:round;stroke-miterlimit:10;" d="M415.457,79.219
				c0-1.592-1.29-2.882-2.882-2.882c-1.592,0-2.882,1.29-2.882,2.882c0,1.592,1.29,2.882,2.882,2.882
				C414.167,82.102,415.457,80.811,415.457,79.219z"/>
			
				<circle style="fill:#FFFFFF;stroke:#263238;stroke-linecap:round;stroke-linejoin:round;stroke-miterlimit:10;" cx="424.584" cy="79.219" r="2.882"/>
		</g>
		<g>
			<polygon style="fill:#D9D9D9;stroke:#B5B5B5;stroke-miterlimit:10;" points="137.731,154.299 173.115,154.299 173.115,130.283 
				152.577,130.283 150.491,124.419 137.731,124.419 			"/>
			<polygon style="fill:#D9D9D9;stroke:#B5B5B5;stroke-miterlimit:10;" points="137.731,200.688 173.115,200.688 173.115,176.671 
				152.577,176.671 150.491,170.807 137.731,170.807 			"/>
			<polygon style="fill:#D9D9D9;stroke:#B5B5B5;stroke-miterlimit:10;" points="137.731,247.076 173.115,247.076 173.115,223.06 
				152.577,223.06 150.491,217.195 137.731,217.195 			"/>
			<polygon style="fill:#D9D9D9;stroke:#B5B5B5;stroke-miterlimit:10;" points="186.895,154.299 222.28,154.299 222.28,130.283 
				201.741,130.283 199.655,124.419 186.895,124.419 			"/>
			<polygon style="fill:#D9D9D9;stroke:#B5B5B5;stroke-miterlimit:10;" points="186.895,200.688 222.28,200.688 222.28,176.671 
				201.741,176.671 199.655,170.807 186.895,170.807 			"/>
			<polygon style="fill:#D9D9D9;stroke:#B5B5B5;stroke-miterlimit:10;" points="186.895,247.076 222.28,247.076 222.28,223.06 
				201.741,223.06 199.655,217.195 186.895,217.195 			"/>
			<polygon style="fill:#D9D9D9;stroke:#B5B5B5;stroke-miterlimit:10;" points="236.06,154.299 271.444,154.299 271.444,130.283 
				250.905,130.283 248.819,124.419 236.06,124.419 			"/>
			<polygon style="fill:#D9D9D9;stroke:#B5B5B5;stroke-miterlimit:10;" points="236.06,200.688 271.444,200.688 271.444,176.671 
				250.905,176.671 248.819,170.807 236.06,170.807 			"/>
			<polygon style="fill:#D9D9D9;stroke:#B5B5B5;stroke-miterlimit:10;" points="236.06,247.076 271.444,247.076 271.444,223.06 
				250.905,223.06 248.819,217.195 236.06,217.195 			"/>
			<polygon style="fill:#D9D9D9;stroke:#B5B5B5;stroke-miterlimit:10;" points="285.224,154.299 320.608,154.299 320.608,130.283 
				300.07,130.283 297.984,124.419 285.224,124.419 			"/>
			<polygon style="fill:#D9D9D9;stroke:#B5B5B5;stroke-miterlimit:10;" points="285.224,200.688 320.608,200.688 320.608,176.671 
				300.07,176.671 297.984,170.807 285.224,170.807 			"/>
			<polygon style="fill:#D9D9D9;stroke:#B5B5B5;stroke-miterlimit:10;" points="285.224,247.076 320.608,247.076 320.608,223.06 
				300.07,223.06 297.984,217.195 285.224,217.195 			"/>
			<polygon style="fill:#D9D9D9;stroke:#B5B5B5;stroke-miterlimit:10;" points="334.388,154.299 369.772,154.299 369.772,130.283 
				349.234,130.283 347.148,124.419 334.388,124.419 			"/>
			<polygon style="fill:#D9D9D9;stroke:#B5B5B5;stroke-miterlimit:10;" points="334.388,200.688 369.772,200.688 369.772,176.671 
				349.234,176.671 347.148,170.807 334.388,170.807 			"/>
			<polygon style="fill:#D9D9D9;stroke:#B5B5B5;stroke-miterlimit:10;" points="334.388,247.076 369.772,247.076 369.772,223.06 
				349.234,223.06 347.148,217.195 334.388,217.195 			"/>
			<polygon style="fill:#D9D9D9;stroke:#B5B5B5;stroke-miterlimit:10;" points="383.552,154.299 418.937,154.299 418.937,130.283 
				398.398,130.283 396.312,124.419 383.552,124.419 			"/>
			<polygon style="fill:#D9D9D9;stroke:#B5B5B5;stroke-miterlimit:10;" points="383.552,200.688 418.937,200.688 418.937,176.671 
				398.398,176.671 396.312,170.807 383.552,170.807 			"/>
			<polygon style="fill:#D9D9D9;stroke:#B5B5B5;stroke-miterlimit:10;" points="383.552,247.076 418.937,247.076 418.937,223.06 
				398.398,223.06 396.312,217.195 383.552,217.195 			"/>
		</g>
	</g>
</g>
<g id="Window_1_1_">
	<g>
		<rect x="208.365" y="120.008" style="opacity:0.3;" width="127.504" height="112.504"/>
		<g>
			<g>
				
					<rect x="211.556" y="114.264" style="fill:#FFFFFF;stroke:#263238;stroke-linecap:round;stroke-linejoin:round;stroke-miterlimit:10;" width="127.504" height="112.504"/>
				
					<rect x="211.556" y="114.264" style="fill:#263238;stroke:#263238;stroke-linecap:round;stroke-linejoin:round;stroke-miterlimit:10;" width="127.504" height="8.036"/>
			</g>
			<g>
				<g>
					<path style="fill:#FFFFFF;stroke:#263238;stroke-linecap:round;stroke-linejoin:round;stroke-miterlimit:10;" d="
						M267.338,162.435v-11.858c0-4.39,3.648-7.961,8.131-7.961c4.484,0,8.131,3.571,8.131,7.961v6.928h3.242v-6.928
						c0-6.139-5.102-11.134-11.373-11.134s-11.373,4.995-11.373,11.134v11.858H267.338z"/>
				</g>
				
					<rect x="262.892" y="161.283" style="fill:#92E3A9;stroke:#263238;stroke-linecap:round;stroke-linejoin:round;stroke-miterlimit:10;" width="24.832" height="20.541"/>
				
					<line style="fill:none;stroke:#263238;stroke-linecap:round;stroke-linejoin:round;stroke-miterlimit:10;" x1="291.264" y1="153.745" x2="292.874" y2="150.066"/>
				
					<line style="fill:none;stroke:#263238;stroke-linecap:round;stroke-linejoin:round;stroke-miterlimit:10;" x1="291.494" y1="158.115" x2="297.473" y2="158.115"/>
				
					<line style="fill:none;stroke:#263238;stroke-linecap:round;stroke-linejoin:round;stroke-miterlimit:10;" x1="290.804" y1="162.254" x2="294.024" y2="165.704"/>
				<path style="fill:#263238;stroke:#263238;stroke-linecap:round;stroke-linejoin:round;stroke-miterlimit:10;" d="
					M277.89,169.813c0-1.462-1.21-2.647-2.703-2.647c-1.493,0-2.703,1.185-2.703,2.647c0,1.007,0.574,1.882,1.42,2.33l-0.454,4.665
					h3.476l-0.454-4.665C277.316,171.695,277.89,170.82,277.89,169.813z"/>
			</g>
			<path style="fill:#FFFFFF;stroke:#263238;stroke-linecap:round;stroke-linejoin:round;stroke-miterlimit:10;" d="
				M319.763,207.679h-88.911c-2.209,0-4-1.791-4-4v-9.488c0-2.209,1.791-4,4-4h88.911c2.209,0,4,1.791,4,4v9.488
				C323.763,205.889,321.973,207.679,319.763,207.679z"/>
			<g>
				<path style="fill:#263238;" d="M236.262,199.488c-0.678-0.217-0.895-0.732-0.705-1.275l0.054-0.135
					c0.217-0.57,0.678-0.759,1.302-0.57c0.596,0.217,1.573,0.705,2.305,1.22c-0.244-0.841-0.434-1.98-0.434-2.657
					c0-0.624,0.352-1.058,0.976-1.058h0.136c0.624,0,0.976,0.434,0.976,1.058c0,0.678-0.19,1.817-0.434,2.657
					c0.759-0.515,1.708-1.003,2.305-1.22c0.596-0.19,1.112,0,1.301,0.597l0.027,0.081c0.19,0.624,0,1.084-0.678,1.302
					c-0.624,0.19-1.681,0.353-2.576,0.38c0.678,0.515,1.519,1.274,1.926,1.817c0.352,0.488,0.298,1.057-0.163,1.41l-0.109,0.081
					c-0.515,0.38-1.03,0.271-1.437-0.271c-0.38-0.543-0.841-1.437-1.193-2.359c-0.38,0.922-0.841,1.817-1.22,2.359
					c-0.407,0.542-0.922,0.651-1.437,0.271l-0.108-0.081c-0.488-0.353-0.515-0.922-0.163-1.41c0.407-0.543,1.247-1.302,1.925-1.844
					C237.97,199.841,236.886,199.678,236.262,199.488z"/>
				<path style="fill:#263238;" d="M246.403,199.488c-0.678-0.217-0.895-0.732-0.705-1.275l0.054-0.135
					c0.217-0.57,0.678-0.759,1.302-0.57c0.596,0.217,1.573,0.705,2.305,1.22c-0.244-0.841-0.434-1.98-0.434-2.657
					c0-0.624,0.352-1.058,0.976-1.058h0.136c0.624,0,0.976,0.434,0.976,1.058c0,0.678-0.19,1.817-0.434,2.657
					c0.759-0.515,1.709-1.003,2.305-1.22c0.596-0.19,1.112,0,1.301,0.597l0.027,0.081c0.19,0.624,0,1.084-0.678,1.302
					c-0.624,0.19-1.682,0.353-2.576,0.38c0.678,0.515,1.519,1.274,1.926,1.817c0.352,0.488,0.298,1.057-0.163,1.41l-0.109,0.081
					c-0.515,0.38-1.03,0.271-1.437-0.271c-0.38-0.543-0.841-1.437-1.193-2.359c-0.38,0.922-0.841,1.817-1.22,2.359
					c-0.407,0.542-0.922,0.651-1.437,0.271l-0.108-0.081c-0.488-0.353-0.515-0.922-0.163-1.41c0.407-0.543,1.247-1.302,1.925-1.844
					C248.111,199.841,247.026,199.678,246.403,199.488z"/>
				<path style="fill:#263238;" d="M256.543,199.488c-0.678-0.217-0.895-0.732-0.705-1.275l0.054-0.135
					c0.217-0.57,0.678-0.759,1.301-0.57c0.597,0.217,1.573,0.705,2.305,1.22c-0.244-0.841-0.434-1.98-0.434-2.657
					c0-0.624,0.352-1.058,0.976-1.058h0.136c0.624,0,0.976,0.434,0.976,1.058c0,0.678-0.19,1.817-0.434,2.657
					c0.759-0.515,1.708-1.003,2.305-1.22c0.596-0.19,1.112,0,1.302,0.597l0.027,0.081c0.19,0.624,0,1.084-0.678,1.302
					c-0.624,0.19-1.681,0.353-2.576,0.38c0.678,0.515,1.518,1.274,1.926,1.817c0.352,0.488,0.298,1.057-0.163,1.41l-0.108,0.081
					c-0.515,0.38-1.03,0.271-1.437-0.271c-0.38-0.543-0.841-1.437-1.193-2.359c-0.38,0.922-0.841,1.817-1.22,2.359
					c-0.407,0.542-0.922,0.651-1.437,0.271l-0.108-0.081c-0.488-0.353-0.515-0.922-0.163-1.41c0.407-0.543,1.248-1.302,1.926-1.844
					C258.251,199.841,257.167,199.678,256.543,199.488z"/>
				<path style="fill:#263238;" d="M266.683,199.488c-0.678-0.217-0.895-0.732-0.705-1.275l0.054-0.135
					c0.217-0.57,0.678-0.759,1.302-0.57c0.596,0.217,1.573,0.705,2.305,1.22c-0.244-0.841-0.434-1.98-0.434-2.657
					c0-0.624,0.352-1.058,0.976-1.058h0.136c0.624,0,0.976,0.434,0.976,1.058c0,0.678-0.19,1.817-0.434,2.657
					c0.759-0.515,1.708-1.003,2.305-1.22c0.596-0.19,1.112,0,1.302,0.597l0.027,0.081c0.19,0.624,0,1.084-0.678,1.302
					c-0.624,0.19-1.682,0.353-2.576,0.38c0.678,0.515,1.518,1.274,1.925,1.817c0.352,0.488,0.298,1.057-0.163,1.41l-0.108,0.081
					c-0.515,0.38-1.03,0.271-1.437-0.271c-0.38-0.543-0.841-1.437-1.193-2.359c-0.38,0.922-0.841,1.817-1.22,2.359
					c-0.407,0.542-0.922,0.651-1.437,0.271l-0.109-0.081c-0.488-0.353-0.515-0.922-0.163-1.41c0.407-0.543,1.247-1.302,1.925-1.844
					C268.392,199.841,267.307,199.678,266.683,199.488z"/>
				<path style="fill:#263238;" d="M276.824,199.488c-0.678-0.217-0.895-0.732-0.705-1.275l0.054-0.135
					c0.217-0.57,0.678-0.759,1.302-0.57c0.596,0.217,1.573,0.705,2.305,1.22c-0.244-0.841-0.434-1.98-0.434-2.657
					c0-0.624,0.353-1.058,0.976-1.058h0.136c0.623,0,0.976,0.434,0.976,1.058c0,0.678-0.19,1.817-0.434,2.657
					c0.759-0.515,1.708-1.003,2.305-1.22c0.597-0.19,1.112,0,1.302,0.597l0.027,0.081c0.189,0.624,0,1.084-0.678,1.302
					c-0.624,0.19-1.681,0.353-2.577,0.38c0.678,0.515,1.519,1.274,1.926,1.817c0.353,0.488,0.298,1.057-0.162,1.41l-0.109,0.081
					c-0.515,0.38-1.03,0.271-1.437-0.271c-0.379-0.543-0.84-1.437-1.193-2.359c-0.38,0.922-0.841,1.817-1.22,2.359
					c-0.407,0.542-0.922,0.651-1.437,0.271l-0.109-0.081c-0.488-0.353-0.515-0.922-0.162-1.41c0.406-0.543,1.247-1.302,1.925-1.844
					C278.532,199.841,277.448,199.678,276.824,199.488z"/>
				<path style="fill:#263238;" d="M286.965,199.488c-0.678-0.217-0.895-0.732-0.705-1.275l0.054-0.135
					c0.217-0.57,0.678-0.759,1.302-0.57c0.596,0.217,1.573,0.705,2.305,1.22c-0.244-0.841-0.434-1.98-0.434-2.657
					c0-0.624,0.353-1.058,0.976-1.058h0.136c0.623,0,0.976,0.434,0.976,1.058c0,0.678-0.19,1.817-0.434,2.657
					c0.759-0.515,1.709-1.003,2.305-1.22c0.597-0.19,1.112,0,1.302,0.597l0.027,0.081c0.189,0.624,0,1.084-0.678,1.302
					c-0.624,0.19-1.681,0.353-2.576,0.38c0.677,0.515,1.519,1.274,1.925,1.817c0.353,0.488,0.298,1.057-0.162,1.41l-0.109,0.081
					c-0.515,0.38-1.03,0.271-1.437-0.271c-0.379-0.543-0.84-1.437-1.193-2.359c-0.38,0.922-0.841,1.817-1.22,2.359
					c-0.407,0.542-0.922,0.651-1.437,0.271l-0.109-0.081c-0.488-0.353-0.515-0.922-0.162-1.41c0.406-0.543,1.247-1.302,1.926-1.844
					C288.673,199.841,287.589,199.678,286.965,199.488z"/>
				<path style="fill:#263238;" d="M297.105,199.488c-0.678-0.217-0.894-0.732-0.705-1.275l0.055-0.135
					c0.216-0.57,0.677-0.759,1.301-0.57c0.596,0.217,1.573,0.705,2.305,1.22c-0.244-0.841-0.434-1.98-0.434-2.657
					c0-0.624,0.353-1.058,0.976-1.058h0.136c0.623,0,0.976,0.434,0.976,1.058c0,0.678-0.19,1.817-0.434,2.657
					c0.759-0.515,1.708-1.003,2.305-1.22c0.597-0.19,1.112,0,1.302,0.597l0.027,0.081c0.189,0.624,0,1.084-0.678,1.302
					c-0.624,0.19-1.681,0.353-2.577,0.38c0.678,0.515,1.519,1.274,1.925,1.817c0.353,0.488,0.298,1.057-0.162,1.41l-0.109,0.081
					c-0.515,0.38-1.03,0.271-1.437-0.271c-0.379-0.543-0.84-1.437-1.193-2.359c-0.38,0.922-0.841,1.817-1.22,2.359
					c-0.407,0.542-0.922,0.651-1.437,0.271l-0.109-0.081c-0.488-0.353-0.515-0.922-0.162-1.41c0.406-0.543,1.247-1.302,1.926-1.844
					C298.814,199.841,297.729,199.678,297.105,199.488z"/>
				<path style="fill:#263238;" d="M307.245,199.488c-0.678-0.217-0.894-0.732-0.705-1.275l0.055-0.135
					c0.216-0.57,0.677-0.759,1.301-0.57c0.596,0.217,1.573,0.705,2.305,1.22c-0.244-0.841-0.434-1.98-0.434-2.657
					c0-0.624,0.353-1.058,0.976-1.058h0.136c0.623,0,0.976,0.434,0.976,1.058c0,0.678-0.19,1.817-0.434,2.657
					c0.759-0.515,1.708-1.003,2.305-1.22c0.597-0.19,1.112,0,1.302,0.597l0.027,0.081c0.189,0.624,0,1.084-0.678,1.302
					c-0.624,0.19-1.681,0.353-2.577,0.38c0.678,0.515,1.519,1.274,1.926,1.817c0.353,0.488,0.298,1.057-0.162,1.41l-0.109,0.081
					c-0.515,0.38-1.03,0.271-1.437-0.271c-0.379-0.543-0.84-1.437-1.193-2.359c-0.38,0.922-0.841,1.817-1.22,2.359
					c-0.407,0.542-0.922,0.651-1.437,0.271l-0.109-0.081c-0.488-0.353-0.515-0.922-0.162-1.41c0.406-0.543,1.247-1.302,1.926-1.844
					C308.954,199.841,307.869,199.678,307.245,199.488z"/>
			</g>
		</g>
	</g>
</g>
<g id="Character">
	<g>
		<g>
			<path style="fill:#FFFFFF;stroke:#263238;stroke-linecap:round;stroke-linejoin:round;stroke-miterlimit:10;" d="
				M148.349,454.499h3.455c0.472,0,0.861-0.369,0.885-0.84l2.738-28.539h-10.702l2.739,28.539
				C147.488,454.13,147.877,454.499,148.349,454.499z"/>
			<path style="fill:#FFFFFF;stroke:#263238;stroke-linecap:round;stroke-linejoin:round;stroke-miterlimit:10;" d="
				M115.015,454.499h3.455c0.471,0,0.86-0.369,0.885-0.84l2.738-28.539h-10.702l2.738,28.539
				C114.155,454.13,114.544,454.499,115.015,454.499z"/>
			<path style="fill:#FFFFFF;stroke:#263238;stroke-linecap:round;stroke-linejoin:round;stroke-miterlimit:10;" d="
				M169.349,454.499h3.455c0.472,0,0.861-0.369,0.885-0.84l2.738-28.539h-10.702l2.739,28.539
				C168.488,454.13,168.877,454.499,169.349,454.499z"/>
			<path style="fill:#FFFFFF;stroke:#263238;stroke-linecap:round;stroke-linejoin:round;stroke-miterlimit:10;" d="
				M204.015,454.499h3.455c0.471,0,0.86-0.369,0.885-0.84l2.738-28.539h-10.702l2.739,28.539
				C203.155,454.13,203.544,454.499,204.015,454.499z"/>
			<path style="fill:#FFFFFF;stroke:#263238;stroke-linecap:round;stroke-linejoin:round;stroke-miterlimit:10;" d="M153.558,426.29
				h68.522c0,0,7.008-23.403,12.459-45.984c5.451-22.581,11.68-51.003,5.061-56.843c-6.619-5.84-24.139,4.283-37.376,7.008
				s-15.963-0.389-24.917-9.733c-8.955-9.344-16.741-24.528-31.925-34.261c-15.184-9.733-26.475-11.291-36.987-4.672
				c0,0-10.512,8.955-11.291,24.139c-0.779,15.184,3.504,34.261,8.955,44.773C111.51,361.229,153.558,426.29,153.558,426.29z"/>
		</g>
		<g>
			<path style="fill:none;stroke:#263238;stroke-linecap:round;stroke-linejoin:round;stroke-miterlimit:10;" d="M143.931,383.453
				h74c0,0,13.333-13.333,15.333-45.333"/>
			<path style="fill:#757575;stroke:#263238;stroke-linecap:round;stroke-linejoin:round;stroke-miterlimit:10;" d="
				M195.663,254.047l-8.38,5.121c0,0,5.82,31.891,4.423,48.651c-1.397,16.76-8.38,32.822-8.38,32.822h22.58
				c0,0,8.38-20.019,12.105-33.986c3.725-13.967-2.793-46.789-2.793-46.789L195.663,254.047z"/>
			<g>
				<path style="fill:#D9D9D9;stroke:#263238;stroke-linecap:round;stroke-linejoin:round;stroke-miterlimit:10;" d="
					M288.558,339.046c0,0,4.815-1.522,6.103-1.516c1.288,0.006,5.479,3.289,5.479,3.289s0.166,1.203-0.78,1.456
					c-0.946,0.253-4.197-1.995-4.197-1.995l-5.417,1.605L288.558,339.046z"/>
				<path style="fill:#D9D9D9;stroke:#263238;stroke-linecap:round;stroke-linejoin:round;stroke-miterlimit:10;" d="
					M289.084,335.983c0,0,4.991,0.768,6.143,1.344c1.152,0.576,3.456,5.375,3.456,5.375s-0.384,1.152-1.344,0.96
					c-0.96-0.192-2.88-3.647-2.88-3.647l-5.567-0.96L289.084,335.983z"/>
				<path style="fill:#D9D9D9;stroke:#263238;stroke-linecap:round;stroke-linejoin:round;stroke-miterlimit:10;" d="
					M283.831,334.453l6.335,1.536l4.031,2.688l2.304,5.567c0,0-0.768,0.768-1.728,0.576c-0.96-0.192-4.991-4.607-4.991-4.607
					l-5.759-3.647l-1.92-2.112H283.831z"/>
				<path style="fill:#D9D9D9;stroke:#263238;stroke-linecap:round;stroke-linejoin:round;stroke-miterlimit:10;" d="
					M270.009,332.725c0,0,9.791,0.384,11.902,0.384c2.112,0,7.679,4.415,8.639,4.799c0.96,0.384,4.991,6.143,4.991,6.143
					s0.192,0-1.152,0.384c-1.344,0.384-3.456-0.96-3.456-0.96l-2.688-3.263l-6.527-1.152c0,0,4.799,2.496,5.951,2.88
					c1.152,0.384,1.92,1.728,1.536,2.496c-0.384,0.768-6.175-1.715-6.175-1.715s-2.171,1.152-4.474,0
					c-2.304-1.152-2.604-1.182-5.052-2.309c-2.448-1.127-7.336-4.039-7.336-4.039L270.009,332.725z"/>
			</g>
			<path style="fill:#92E3A9;stroke:#263238;stroke-linecap:round;stroke-linejoin:round;stroke-miterlimit:10;" d="M220.104,264.29
				c0,0,3.725,0.698,4.656,2.793c0.931,2.095,6.983,49.582,6.983,49.582l39.992,14.622l-0.762,14.008c0,0-47.377-5.817-50.636-5.119
				c-3.259,0.698-11.173,1.629-14.432-0.931c-3.259-2.561,9.107-13.272,11.359-23.125c5.333-23.333,4.667-39.333,4.667-39.333
				S215.449,261.496,220.104,264.29z"/>
			<path style="fill:#92E3A9;stroke:#263238;stroke-linecap:round;stroke-linejoin:round;stroke-miterlimit:10;" d="
				M225.226,291.525c0,0-5.82,23.278-8.38,29.563c-2.561,6.285-7.682,16.76-7.682,16.76l-5.587,0.931c0,0,11.639-25.14,13.734-35.15
				c2.095-10.009-2.561-35.383-2.793-36.314c-0.233-0.931,1.63-6.751,5.121-5.587"/>
			<polygon style="fill:#FFFFFF;stroke:#263238;stroke-linecap:round;stroke-linejoin:round;stroke-miterlimit:10;" points="
				214.751,285.007 208,302 200.784,283.843 209.397,277.092 			"/>
			<g>
				<polygon style="fill:#FFFFFF;stroke:#263238;stroke-linecap:round;stroke-linejoin:round;stroke-miterlimit:10;" points="
					216.38,271.273 218.941,291.059 208,282.679 				"/>
				<g>
					<g>
						<path style="fill:#D9D9D9;stroke:#263238;stroke-linecap:round;stroke-linejoin:round;stroke-miterlimit:10;" d="
							M246.875,236.069c0,0-0.239,13.141-1.303,14.961c-1.064,1.82-3.334,4.632-3.429,7.137c-0.095,2.505,2.894,7.928,1.097,9.677
							c-1.797,1.749-4.266,0.888-4.266,0.888s-5.857,7.015-9.119,8.622c-3.262,1.606-11.988-2.977-11.988-2.977l-8.703,9.002
							l-16.062-29.097l9.194-6.19c0,0,3.549-18.293,14.942-22.143C228.632,222.097,245.103,231.46,246.875,236.069z"/>
						<path style="fill:none;stroke:#263238;stroke-linecap:round;stroke-linejoin:round;stroke-miterlimit:10;" d="
							M214.799,252.631c0,0-3.523,7.35-0.499,12.007"/>
						<path style="fill:#263238;" d="M237.252,254.845c-0.444,0.999-0.423,1.977,0.047,2.186c0.47,0.209,1.211-0.431,1.655-1.43
							c0.444-0.998,0.423-1.977-0.047-2.186C238.437,253.207,237.696,253.847,237.252,254.845z"/>
						<path style="fill:none;stroke:#263238;stroke-linecap:round;stroke-linejoin:round;stroke-miterlimit:10;" d="
							M235.108,269.327c0,0-3.516-0.703-3.516-3.516"/>
						
							<line style="fill:none;stroke:#263238;stroke-linecap:round;stroke-linejoin:round;stroke-miterlimit:10;" x1="234.874" y1="255.733" x2="237.452" y2="258.077"/>
						<path style="fill:none;stroke:#263238;stroke-linecap:round;stroke-linejoin:round;stroke-miterlimit:10;" d="
							M242.027,250.982c0,0-0.122-3.452-5.719-2.034"/>
					</g>
					<path style="fill:#263238;stroke:#263238;stroke-linecap:round;stroke-linejoin:round;stroke-miterlimit:10;" d="
						M254.548,226.227c-2.455,0.273-4.911,2.182-5.729,0.546c-0.818-1.637-0.273-7.639-4.365-8.184
						c-4.092-0.546-3.819,1.364-5.183,1.637c-1.364,0.273-3.001-6.002-8.184-5.183c-5.165,0.815-8.432,2.985-8.725,4.08
						c-8.937-0.073-14.441,3.564-18.383,10.864c-4.327,8.011-1.682,18.104-1.682,18.104s-4.073,3.164-0.814,4.095
						c3.259,0.931,13.317,0.446,13.317,0.446s0,0-1.063-0.473c-1.064-0.473-2.788-4.042,0.734-9.1
						c3.523-5.057,5.909-0.684,6.216,1.49c0.307,2.174,0.495,4.042,1.772,4.609c1.276,0.568,2.151-0.827,2.482-2.718
						c0.331-1.891,4.184-1.961,7.044-3.237c2.86-1.276,0.143-3.758-2.22-7.611c-2.363-3.853,3.641-4.75,9.218-1.251
						c3.217,2.019,4.901,3.095,6.494,3.296l0.07,0.047c0,0,2.728,2.182,4.911,0.273c2.182-1.91,3.546-2.182,5.456-4.365
						C257.822,231.411,257.003,225.954,254.548,226.227z"/>
				</g>
				<path style="fill:#FFFFFF;stroke:#263238;stroke-linecap:round;stroke-linejoin:round;stroke-miterlimit:10;" d="
					M194.033,252.651l15.363,29.796l-9.777,10.242c0,0-8.38-22.58-9.311-28.166c-0.931-5.587-1.63-9.544-1.63-9.544L194.033,252.651
					z"/>
			</g>
			<path style="fill:#263238;stroke:#263238;stroke-linecap:round;stroke-linejoin:round;stroke-miterlimit:10;" d="
				M202.931,336.787c0,0,45-2.333,50.667,0c5.667,2.333,7,8.333,6.333,14.333c-0.667,6-4,41.333-5.333,51.333
				c-1.333,10-2,22.333-1,24.667c1,2.333,4,6.333,3,8.667c-1,2.333-2.667,3.333-2.667,4.333s1.333,2.667,1.333,2.667
				s12.333,5.333,16.667,7c4.333,1.667,4.667,3,3.667,3.667c-1,0.667-21.667,0-25.333,0c-3.667,0-10.667-2.333-10.667-2.333v1.667
				h-9c0,0,0-3,0-6.333c0-3.333,0.333-6,0.333-6s-1.667-4.333-1.333-6c0.333-1.667,2.333-5.333,3-8.667
				c0.667-3.333,0-8-0.333-11.667c-0.333-3.667,0-6,0.333-8c0.333-2-2-38.333-2-38.333s-26.333,8-29,8.333
				c-2.667,0.333-24.333,8.333-33.333,6c-9-2.333,3.667-30.667,13.667-40.333C191.931,332.12,202.931,336.787,202.931,336.787z"/>
			<path style="fill:#263238;stroke:#263238;stroke-linecap:round;stroke-linejoin:round;stroke-miterlimit:10;" d="
				M184.598,333.453c0,0,29.667,2.333,33,5.667c3.333,3.333,2.333,10,2.333,14.333c0,4.333-4,62-4.333,65.333
				c-0.333,3.333,3.333,6.667,2,9c-1.333,2.333-2,5-2,6s9,8.333,12.667,10.333c3.667,2,14,4.333,15.667,6
				c1.667,1.667,1.333,3-1.667,4s-28,0-28,0s-3.667,0-5-1c-1.333-1-2.333-1.333-2.333-1.333l-0.333,2.229h-13
				c0,0-1.333-7.562-1.333-10.896c0-3.333,1-8.333,1-8.333s-2-3-1.667-6c0.333-3,2.667-4.333,2.667-6.333s-2-8-1.667-11.667
				c0.333-3.667,0.667-8,0.667-8l-3-29.333c0,0-20,11-29.667,10c-9.667-1-12.333-2.333-15-7c-2.667-4.667-2.667-24.333,1.667-32
				C151.598,336.787,175.598,329.787,184.598,333.453z"/>
			<path style="fill:#92E3A9;stroke:#263238;stroke-linecap:round;stroke-linejoin:round;stroke-miterlimit:10;" d="
				M188.679,254.978c0,0,6.983,17.458,7.682,27.934c0.698,10.475-0.233,34.917-2.793,41.9s-3.725,11.406-3.725,11.406
				s-23.278,3.492-26.304,4.656c-3.026,1.164-9.311,10.242-10.475,17.924c-0.335,2.214-0.574,4.602-0.744,6.88
				c-0.389,5.217,0.134,10.437,1.169,15.566c0.193,0.956,0.234,1.752-0.057,2.043c-0.931,0.931-13.403-4.702-17.593-19.134
				c-4.19-14.432-2.095-31.425,1.63-39.34c3.725-7.915,18.157-55.169,24.442-61.454
				C168.195,257.073,188.679,254.978,188.679,254.978z"/>
			<g>
				<path style="fill:#D9D9D9;stroke:#263238;stroke-linecap:round;stroke-linejoin:round;stroke-miterlimit:10;" d="
					M267.432,338.844c0,0,8.795,1.135,11.064,1.702c2.27,0.567,3.807,2.63,3.807,2.63l-0.855,0.794l-6.359-2.412L267.432,338.844z"
					/>
				<path style="fill:#D9D9D9;stroke:#263238;stroke-linecap:round;stroke-linejoin:round;stroke-miterlimit:10;" d="
					M271.032,340.242c0,0,5.373,0.329,6.031,0.987s3.509,5.482,3.509,5.482l-1.316,0.877l-3.618-3.399l-4.605-2.522V340.242z"/>
				<path style="fill:#D9D9D9;stroke:#263238;stroke-linecap:round;stroke-linejoin:round;stroke-miterlimit:10;" d="
					M261.158,338.258c0,0,9.971,0.85,11.957,1.985c1.986,1.135,4.498,6.243,4.498,6.243l-1.418,0.567l-4.823-4.823l-11.916-1.986
					L261.158,338.258z"/>
				<path style="fill:#D9D9D9;stroke:#263238;stroke-linecap:round;stroke-linejoin:round;stroke-miterlimit:10;" d="
					M260.725,343.312c0,0,2.741,1.425,4.167,1.425c1.425,0,5.921-1.535,5.921-1.535s-4.496-1.864-5.373-1.974
					C264.562,341.119,260.725,343.312,260.725,343.312z"/>
				<path style="fill:#D9D9D9;stroke:#263238;stroke-linecap:round;stroke-linejoin:round;stroke-miterlimit:10;" d="
					M248.959,333.718c0,0,11.916,2.837,13.334,3.688c1.419,0.851,8.227,4.256,9.079,4.823c0.851,0.567,3.404,5.107,3.404,5.107
					s-1.702,1.986-2.27,0.568c-0.568-1.419-3.121-3.972-3.121-3.972l-5.107-1.702c0,0-2.837,1.419-5.958,1.419
					c-3.121,0-6.478-3.077-6.478-3.077l-5.722,1.375L248.959,333.718z"/>
				<path style="fill:#92E3A9;stroke:#263238;stroke-linecap:round;stroke-linejoin:round;stroke-miterlimit:10;" d="
					M178.455,267.239c0,0,7.071,6.169,7.656,13.132c0.585,6.963,0.494,9.764,0.552,10.927c0.059,1.162,4.199,31.745,4.199,31.745
					l59.43,9.626l-1.143,13.204l-67.725-1.303c0,0-4.614,0.932-7.115-2.437c-2.501-3.37-16.965-54.482-16.965-54.482"/>
				<path style="fill:none;stroke:#263238;stroke-linecap:round;stroke-linejoin:round;stroke-miterlimit:10;" d="M179.213,327.691
					c-0.642,0.549-1.247,1.18-1.793,1.907"/>
				<path style="fill:none;stroke:#263238;stroke-linecap:round;stroke-linejoin:round;stroke-miterlimit:10;" d="M189.96,324.069
					c0,0-4.359-0.153-8.411,2.03"/>
				<path style="fill:none;stroke:#263238;stroke-linecap:round;stroke-linejoin:round;stroke-miterlimit:10;" d="M185.892,326.606
					c0,0-5.73,1.921-6.925,5.944"/>
			</g>
		</g>
		<path style="fill:#FFFFFF;stroke:#263238;stroke-linecap:round;stroke-linejoin:round;stroke-miterlimit:10;" d="M153.558,426.29
			c0,0-1.168-41.701-11.68-68.955c-10.512-27.253-16.741-30.757-21.024-29.589c-4.283,1.168-10.512,8.565-14.405,3.504
			c-3.893-5.061-9.733-19.077-7.397-31.536c2.336-12.459,7.008-14.795,9.344-17.909c2.336-3.115-10.123,4.283-15.573,12.459
			c-5.451,8.176-5.451,28.032-2.336,48.667c3.115,20.635,10.901,79.077,13.627,81.413c2.725,2.336,9.344,2.336,9.344,2.336h35.819
			L153.558,426.29z"/>
	</g>
</g>
<g id="Device">
	<g>
		
			<rect x="256.308" y="344.546" style="fill:#FFFFFF;stroke:#263238;stroke-linecap:round;stroke-linejoin:round;stroke-miterlimit:10;" width="91.5" height="4"/>
		
			<rect x="303.491" y="344.546" style="fill:#B2B2B2;stroke:#263238;stroke-linecap:round;stroke-linejoin:round;stroke-miterlimit:10;" width="44.317" height="4"/>
		<polygon style="fill:#D9D9D9;stroke:#263238;stroke-linecap:round;stroke-linejoin:round;stroke-miterlimit:10;" points="
			360.558,308.793 316.241,308.793 303.491,344.543 347.808,344.543 		"/>
	</g>
</g>
<g id="Table">
	<g>
		<g>
			<path style="fill:#525252;stroke:#263238;stroke-linecap:round;stroke-linejoin:round;stroke-miterlimit:10;" d="
				M314.067,454.565h0.626c1.429,0,2.588-1.159,2.588-2.588V351.018h-5.802v100.958C311.48,453.406,312.638,454.565,314.067,454.565
				z"/>
		</g>
		<g>
			<path style="fill:#525252;stroke:#263238;stroke-linecap:round;stroke-linejoin:round;stroke-miterlimit:10;" d="
				M324.616,454.565h0.626c1.429,0,2.588-1.159,2.588-2.588V351.018h-5.801v100.958
				C322.028,453.406,323.186,454.565,324.616,454.565z"/>
		</g>
		<g>
			<path style="fill:#525252;stroke:#263238;stroke-linecap:round;stroke-linejoin:round;stroke-miterlimit:10;" d="
				M242.522,454.565h0.626c1.429,0,2.588-1.159,2.588-2.588V351.018h-5.802v100.958
				C239.934,453.406,241.093,454.565,242.522,454.565z"/>
		</g>
		<g>
			<path style="fill:#525252;stroke:#263238;stroke-linecap:round;stroke-linejoin:round;stroke-miterlimit:10;" d="
				M386.988,454.565h0.626c1.429,0,2.588-1.159,2.588-2.588V351.018h-5.802v100.958
				C384.401,453.406,385.559,454.565,386.988,454.565z"/>
		</g>
		
			<rect x="233.175" y="348.658" transform="matrix(-1 -1.224647e-16 1.224647e-16 -1 628.8413 702.0362)" style="fill:#FFFFFF;stroke:#263238;stroke-linecap:round;stroke-linejoin:round;stroke-miterlimit:10;" width="162.492" height="4.72"/>
		
			<rect x="233.175" y="398.696" transform="matrix(-1 -1.224647e-16 1.224647e-16 -1 628.8413 802.1112)" style="fill:#FFFFFF;stroke:#263238;stroke-linecap:round;stroke-linejoin:round;stroke-miterlimit:10;" width="162.492" height="4.72"/>
		<g>
			
				<rect x="262.154" y="393.885" style="fill:#FFFFFF;stroke:#263238;stroke-linecap:round;stroke-linejoin:round;stroke-miterlimit:10;" width="42.43" height="4.731"/>
			
				<rect x="285.526" y="393.885" style="fill:#FFFFFF;stroke:#263238;stroke-linecap:round;stroke-linejoin:round;stroke-miterlimit:10;" width="19.058" height="4.731"/>
		</g>
		<g>
			
				<rect x="326.574" y="393.885" style="fill:#FFFFFF;stroke:#263238;stroke-linecap:round;stroke-linejoin:round;stroke-miterlimit:10;" width="42.43" height="4.731"/>
			
				<rect x="349.946" y="393.885" style="fill:#FFFFFF;stroke:#263238;stroke-linecap:round;stroke-linejoin:round;stroke-miterlimit:10;" width="19.058" height="4.731"/>
		</g>
		<g>
			
				<rect x="258.648" y="388.933" style="fill:#FFFFFF;stroke:#263238;stroke-linecap:round;stroke-linejoin:round;stroke-miterlimit:10;" width="42.43" height="4.731"/>
			
				<rect x="282.02" y="388.933" style="fill:#FFFFFF;stroke:#263238;stroke-linecap:round;stroke-linejoin:round;stroke-miterlimit:10;" width="19.058" height="4.731"/>
		</g>
	</g>
</g>
<g id="Floor">
	
		<line style="fill:none;stroke:#263238;stroke-linecap:round;stroke-linejoin:round;stroke-miterlimit:10;" x1="37.299" y1="454.565" x2="475.299" y2="454.565"/>
</g>
</svg>
